<svg xmlns="http://www.w3.org/2000/svg" xmlns:xlink="http://www.w3.org/1999/xlink" viewBox="0 0 948.57 208.34"><defs><style>.cls-1{fill:none;}.cls-2{fill:#fff;}.cls-3{clip-path:url(#clip-path);}.cls-4{clip-path:url(#clip-path-2);}.cls-5{fill:#7559a6;}.cls-6{fill:#74c161;}.cls-7{fill:#0d4ba0;}.cls-18,.cls-8{fill:#33c3e0;}.cls-9{fill:#7b62aa;}.cls-10{fill:#5cbc6e;}.cls-11{fill:#685ba8;}.cls-12{fill:#8070b3;}.cls-13{fill:#2587c8;}.cls-14{fill:#2574bb;}.cls-15{fill:#1b58a8;}.cls-16{fill:#4090ce;}.cls-17{fill:#5496d0;}.cls-18{font-size:57px;font-family:Circular-Pro-Bold, Circular-Pro-Book;font-weight:700;letter-spacing:-0.02em;}.cls-19{letter-spacing:-0.04em;}.cls-20{letter-spacing:-0.02em;}.cls-21{letter-spacing:-0.02em;}</style><clipPath id="clip-path"><rect class="cls-1" y="4.5" width="141.73" height="141.73"/></clipPath><clipPath id="clip-path-2"><rect class="cls-1" x="-45.37" y="-6.78" width="232.35" height="164.28"/></clipPath></defs><g id="Cloud-Services"><path class="cls-2" d="M273.68,37.24a36.6,36.6,0,0,0-26.15,11.55,32.29,32.29,0,0,0-24.86-11.55c-7.14,0-15,2.28-20,7.45V38.91h-20v74h21V64.6c2-3.5,8.78-9.12,17.14-9.12A14.93,14.93,0,0,1,232,60c2.28,2.58,3.71,5.93,3.71,12.62v40.25h19V73.42a68.79,68.79,0,0,0-.31-8.21c2.58-3.8,9.42-9.73,17.94-9.73A14.41,14.41,0,0,1,283.22,60c2.28,2.58,3.46,5.93,3.46,12.62v40.25h19V73.42c0-10.95-2.09-18.55-6.81-24.32A32.29,32.29,0,0,0,273.68,37.24Z"/><path class="cls-2" d="M455.78,95.77c-12,0-20.37-8.51-20.37-20.06,0-11.25,8.51-20.22,19.91-20.22a21.35,21.35,0,0,1,17,8.82l14-12.31a39.33,39.33,0,0,0-31-14.74c-22.5,0-39.67,17-39.67,38.46C415.65,97,432.37,114,455.17,114c13.83,0,24.78-5,33.44-16.57L473.41,86A21.6,21.6,0,0,1,455.78,95.77Z"/><path class="cls-2" d="M642.68,86.64c-3,3.5-8.63,9.12-17,9.12a15.08,15.08,0,0,1-11.23-4.56c-2.28-2.58-3.78-5.93-3.78-12.62V38.91h-19V77.83c0,10.95,2.58,18.55,7.29,24.32A31,31,0,0,0,623.41,114c7.14,0,14.27-2.28,19.27-7.45v6.35h19v-74h-19Z"/><path class="cls-2" d="M797.68,46.21v-7.3h-19v74h20V66.12c2-4.41,9.36-10.64,18-10.64a27.84,27.84,0,0,1,7.19.76l2.3-18.39a42.9,42.9,0,0,0-6.88-.61C810.34,37.24,801.68,40.74,797.68,46.21Z"/><path class="cls-2" d="M851.29,0a12.62,12.62,0,1,0,12.92,12.62A12.65,12.65,0,0,0,851.29,0Z"/><rect class="cls-2" x="840.68" y="38.91" width="20" height="74"/><path class="cls-2" d="M948.57,75.11c0-20.52-14.44-37.78-34.81-37.78-21.89,0-35.87,17.89-35.87,38.42,0,23.1,16.57,38.28,38.61,38.28,11.4,0,23.1-4.72,30.25-13.24L935.5,89.54c-3.5,3.8-10.19,8.68-18.55,8.68-10.49,0-18.85-7.31-19.91-17.31h51.07A37.51,37.51,0,0,0,948.57,75.11ZM898,66.91c.91-7,7.6-12.92,15.81-12.92a14.34,14.34,0,0,1,14.59,12.92Z"/><path class="cls-2" d="M378.68,44.69c-5-4.71-12.6-7.45-21-7.45-20.06,0-35.87,16.72-35.87,38.46a39.68,39.68,0,0,0,9.58,25.84A35.89,35.89,0,0,0,358.71,114c7.45,0,15-2.28,20-7.45v6.35h21v-74h-21ZM362,95.7a20.11,20.11,0,1,1,20.11-20.11A20.11,20.11,0,0,1,362,95.7Z"/><path class="cls-2" d="M575.83,75.7c0-21.28-16.87-38.46-39.22-38.46S497.4,54.42,497.4,75.7a38,38,0,0,0,31.93,37.67L565.07,135l10.75-17.8-16.52-10A37.76,37.76,0,0,0,575.83,75.7ZM536.28,55.48a20.11,20.11,0,1,1-20.11,20.11A20.11,20.11,0,0,1,536.28,55.48Z"/><path class="cls-2" d="M735.68,44.69c-4-4.71-12.56-7.45-20.92-7.45-20.06,0-35.84,16.72-35.84,38.46a39.69,39.69,0,0,0,9.59,25.84A35.81,35.81,0,0,0,715.75,114c7.45,0,15.94-2.28,19.94-7.45v6.35h20v-74h-20Zm-16.56,51a20.11,20.11,0,1,1,20.11-20.11A20.11,20.11,0,0,1,719.12,95.7Z"/><g id="PMS"><g class="cls-3"><g class="cls-4"><path class="cls-5" d="M70.87,102.36a40.63,40.63,0,0,1-39.52,12.53,40.59,40.59,0,0,0,79,0,40.64,40.64,0,0,1-39.52-12.53"/><path class="cls-6" d="M141.73,75.37a40.59,40.59,0,0,0-31.35-39.52A40.63,40.63,0,0,1,97.86,75.37a40.63,40.63,0,0,1,12.53,39.52,40.59,40.59,0,0,0,31.35-39.52"/><path class="cls-7" d="M70.87,48.38a40.63,40.63,0,0,1,39.52-12.53,40.59,40.59,0,0,0-79,0A40.63,40.63,0,0,1,70.87,48.38"/><path class="cls-8" d="M43.88,75.37A40.63,40.63,0,0,1,31.35,35.85a40.59,40.59,0,0,0,0,79A40.64,40.64,0,0,1,43.88,75.37"/><path class="cls-9" d="M97.86,75.37A40.47,40.47,0,0,1,80.09,84.6a40.46,40.46,0,0,1-9.23,17.76,40.63,40.63,0,0,0,39.52,12.53A40.64,40.64,0,0,0,97.86,75.37"/><path class="cls-10" d="M70.87,48.38a40.46,40.46,0,0,1,9.23,17.76,40.47,40.47,0,0,1,17.77,9.23,40.64,40.64,0,0,0,12.53-39.52A40.63,40.63,0,0,0,70.87,48.38"/><path class="cls-11" d="M81.15,75.37a40.7,40.7,0,0,1-1.06,9.23,40.46,40.46,0,0,0,17.77-9.23,40.46,40.46,0,0,0-17.77-9.23,40.7,40.7,0,0,1,1.06,9.23"/><path class="cls-12" d="M61.64,84.6a40.46,40.46,0,0,0,9.23,17.76A40.47,40.47,0,0,0,80.09,84.6a40.89,40.89,0,0,1-18.46,0"/><path class="cls-13" d="M43.88,75.37a40.46,40.46,0,0,1,17.76-9.23,40.46,40.46,0,0,1,9.23-17.76A40.63,40.63,0,0,0,31.35,35.85,40.63,40.63,0,0,0,43.88,75.37"/><path class="cls-14" d="M61.64,66.14a40.46,40.46,0,0,0-17.76,9.23A40.46,40.46,0,0,0,61.64,84.6a40.89,40.89,0,0,1,0-18.46"/><path class="cls-15" d="M80.09,66.14a40.89,40.89,0,0,0-18.46,0,40.89,40.89,0,0,0,0,18.46,40.89,40.89,0,0,0,18.46,0,40.9,40.9,0,0,0,0-18.46"/><path class="cls-16" d="M80.09,66.14a40.46,40.46,0,0,0-9.23-17.76,40.46,40.46,0,0,0-9.23,17.76,40.89,40.89,0,0,1,18.46,0"/><path class="cls-17" d="M70.87,102.36A40.46,40.46,0,0,1,61.64,84.6a40.46,40.46,0,0,1-17.76-9.23,40.63,40.63,0,0,0-12.53,39.52,40.63,40.63,0,0,0,39.52-12.53"/></g></g></g><g id="CMYK"><path class="cls-5" d="M70.87,102.36a40.63,40.63,0,0,1-39.52,12.53,40.59,40.59,0,0,0,79,0,40.64,40.64,0,0,1-39.52-12.53"/><path class="cls-6" d="M141.73,75.37a40.59,40.59,0,0,0-31.35-39.52A40.63,40.63,0,0,1,97.86,75.37a40.63,40.63,0,0,1,12.53,39.52,40.59,40.59,0,0,0,31.35-39.52"/><path class="cls-7" d="M70.87,48.38a40.63,40.63,0,0,1,39.52-12.53,40.59,40.59,0,0,0-79,0A40.63,40.63,0,0,1,70.87,48.38"/><path class="cls-8" d="M43.88,75.37A40.63,40.63,0,0,1,31.35,35.85a40.59,40.59,0,0,0,0,79A40.64,40.64,0,0,1,43.88,75.37"/><path class="cls-9" d="M97.86,75.37A40.47,40.47,0,0,1,80.09,84.6a40.46,40.46,0,0,1-9.23,17.76,40.63,40.63,0,0,0,39.52,12.53A40.64,40.64,0,0,0,97.86,75.37"/><path class="cls-10" d="M70.87,48.38a40.46,40.46,0,0,1,9.23,17.76,40.47,40.47,0,0,1,17.77,9.23,40.64,40.64,0,0,0,12.53-39.52A40.63,40.63,0,0,0,70.87,48.38"/><path class="cls-11" d="M81.15,75.37a40.7,40.7,0,0,1-1.06,9.23,40.46,40.46,0,0,0,17.77-9.23,40.46,40.46,0,0,0-17.77-9.23,40.7,40.7,0,0,1,1.06,9.23"/><path class="cls-12" d="M61.64,84.6a40.46,40.46,0,0,0,9.23,17.76A40.47,40.47,0,0,0,80.09,84.6a40.89,40.89,0,0,1-18.46,0"/><path class="cls-13" d="M43.88,75.37a40.46,40.46,0,0,1,17.76-9.23,40.46,40.46,0,0,1,9.23-17.76A40.63,40.63,0,0,0,31.35,35.85,40.63,40.63,0,0,0,43.88,75.37"/><path class="cls-14" d="M61.64,66.14a40.46,40.46,0,0,0-17.76,9.23A40.46,40.46,0,0,0,61.64,84.6a40.89,40.89,0,0,1,0-18.46"/><path class="cls-15" d="M80.09,66.14a40.89,40.89,0,0,0-18.46,0,40.89,40.89,0,0,0,0,18.46,40.89,40.89,0,0,0,18.46,0,40.9,40.9,0,0,0,0-18.46"/><path class="cls-16" d="M80.09,66.14a40.46,40.46,0,0,0-9.23-17.76,40.46,40.46,0,0,0-9.23,17.76,40.89,40.89,0,0,1,18.46,0"/><path class="cls-17" d="M70.87,102.36A40.46,40.46,0,0,1,61.64,84.6a40.46,40.46,0,0,1-17.76-9.23,40.63,40.63,0,0,0-12.53,39.52,40.63,40.63,0,0,0,39.52-12.53"/></g><text class="cls-18" transform="translate(179.52 193.86)">C<tspan class="cls-19" x="42.41" y="0">L</tspan><tspan class="cls-20" x="71.88" y="0">OUD SE</tspan><tspan class="cls-21" x="273.48" y="0">R</tspan><tspan class="cls-20" x="307.68" y="0">VICES</tspan></text></g></svg>