<svg xmlns="http://www.w3.org/2000/svg" xmlns:xlink="http://www.w3.org/1999/xlink" viewBox="0 0 948.57 194.68"><defs><clipPath id="7bc55608-9a6e-4446-bb67-42143c6f0211"><rect y="4.5" width="141.73" height="141.73" fill="none"/></clipPath><clipPath id="4f5304b3-9a68-4536-a54b-88ba9a40567d"><rect x="-45.37" y="-6.78" width="232.35" height="164.28" fill="none"/></clipPath></defs><g id="d5c90325-e291-44ad-ab9e-dc9c39e55e98" data-name="-Logotype - White/Reverse"><path d="M273.68,37.24a36.6,36.6,0,0,0-26.15,11.55,32.29,32.29,0,0,0-24.86-11.55c-7.14,0-15,2.28-20,7.45V38.91h-20v74h21V64.6c2-3.5,8.78-9.12,17.14-9.12A14.93,14.93,0,0,1,232,60c2.28,2.58,3.71,5.93,3.71,12.62v40.25h19V73.42a68.79,68.79,0,0,0-.31-8.21c2.58-3.8,9.42-9.73,17.94-9.73A14.41,14.41,0,0,1,283.22,60c2.28,2.58,3.46,5.93,3.46,12.62v40.25h19V73.42c0-10.95-2.09-18.55-6.81-24.32A32.29,32.29,0,0,0,273.68,37.24Z" fill="#fff"/><path d="M455.78,95.77c-12,0-20.37-8.51-20.37-20.06,0-11.25,8.51-20.22,19.91-20.22a21.35,21.35,0,0,1,17,8.82l14-12.31a39.33,39.33,0,0,0-31-14.74c-22.5,0-39.67,17-39.67,38.46C415.65,97,432.37,114,455.17,114c13.83,0,24.78-5,33.44-16.57L473.41,86A21.6,21.6,0,0,1,455.78,95.77Z" fill="#fff"/><path d="M642.68,86.64c-3,3.5-8.63,9.12-17,9.12a15.08,15.08,0,0,1-11.23-4.56c-2.28-2.58-3.78-5.93-3.78-12.62V38.91h-19V77.83c0,10.95,2.58,18.55,7.29,24.32A31,31,0,0,0,623.41,114c7.14,0,14.27-2.28,19.27-7.45v6.35h19v-74h-19Z" fill="#fff"/><path d="M797.68,46.21v-7.3h-19v74h20V66.12c2-4.41,9.36-10.64,18-10.64a27.84,27.84,0,0,1,7.19.76l2.3-18.39a42.9,42.9,0,0,0-6.88-.61C810.34,37.24,801.68,40.74,797.68,46.21Z" fill="#fff"/><path d="M851.29,0a12.62,12.62,0,1,0,12.92,12.62A12.65,12.65,0,0,0,851.29,0Z" fill="#fff"/><rect x="840.68" y="38.91" width="20" height="74" fill="#fff"/><path d="M948.57,75.11c0-20.52-14.44-37.78-34.81-37.78-21.89,0-35.87,17.89-35.87,38.42,0,23.1,16.57,38.28,38.61,38.28,11.4,0,23.1-4.72,30.25-13.24L935.5,89.54c-3.5,3.8-10.19,8.68-18.55,8.68-10.49,0-18.85-7.31-19.91-17.31h51.07A37.51,37.51,0,0,0,948.57,75.11ZM898,66.91c.91-7,7.6-12.92,15.81-12.92a14.34,14.34,0,0,1,14.59,12.92Z" fill="#fff"/><path d="M378.68,44.69c-5-4.71-12.6-7.45-21-7.45-20.06,0-35.87,16.72-35.87,38.46a39.68,39.68,0,0,0,9.58,25.84A35.89,35.89,0,0,0,358.71,114c7.45,0,15-2.28,20-7.45v6.35h21v-74h-21ZM362,95.7a20.11,20.11,0,1,1,20.11-20.11A20.11,20.11,0,0,1,362,95.7Z" fill="#fff"/><path d="M575.83,75.7c0-21.28-16.87-38.46-39.22-38.46S497.4,54.42,497.4,75.7a38,38,0,0,0,31.93,37.67L565.07,135l10.75-17.8-16.52-10A37.76,37.76,0,0,0,575.83,75.7ZM536.28,55.48a20.11,20.11,0,1,1-20.11,20.11A20.11,20.11,0,0,1,536.28,55.48Z" fill="#fff"/><path d="M735.68,44.69c-4-4.71-12.56-7.45-20.92-7.45-20.06,0-35.84,16.72-35.84,38.46a39.69,39.69,0,0,0,9.59,25.84A35.81,35.81,0,0,0,715.75,114c7.45,0,15.94-2.28,19.94-7.45v6.35h20v-74h-20Zm-16.56,51a20.11,20.11,0,1,1,20.11-20.11A20.11,20.11,0,0,1,719.12,95.7Z" fill="#fff"/></g><g id="0a62783c-86f2-4307-ab75-c391e5a51c5b" data-name="+Symbol - Colour"><g id="f436f552-39f5-4f8a-a5e3-bf8a06ea537b" data-name="PMS"><g clip-path="url(#7bc55608-9a6e-4446-bb67-42143c6f0211)"><g clip-path="url(#4f5304b3-9a68-4536-a54b-88ba9a40567d)"><path d="M70.87,102.36a40.63,40.63,0,0,1-39.52,12.53,40.59,40.59,0,0,0,79,0,40.64,40.64,0,0,1-39.52-12.53" fill="#7559a6"/><path d="M141.73,75.37a40.59,40.59,0,0,0-31.35-39.52A40.63,40.63,0,0,1,97.86,75.37a40.63,40.63,0,0,1,12.53,39.52,40.59,40.59,0,0,0,31.35-39.52" fill="#74c161"/><path d="M70.87,48.38a40.63,40.63,0,0,1,39.52-12.53,40.59,40.59,0,0,0-79,0A40.63,40.63,0,0,1,70.87,48.38" fill="#0d4ba0"/><path d="M43.88,75.37A40.63,40.63,0,0,1,31.35,35.85a40.59,40.59,0,0,0,0,79A40.64,40.64,0,0,1,43.88,75.37" fill="#33c3e0"/><path d="M97.86,75.37A40.47,40.47,0,0,1,80.09,84.6a40.46,40.46,0,0,1-9.23,17.76,40.63,40.63,0,0,0,39.52,12.53A40.64,40.64,0,0,0,97.86,75.37" fill="#7b62aa"/><path d="M70.87,48.38a40.46,40.46,0,0,1,9.23,17.76,40.47,40.47,0,0,1,17.77,9.23,40.64,40.64,0,0,0,12.53-39.52A40.63,40.63,0,0,0,70.87,48.38" fill="#5cbc6e"/><path d="M81.15,75.37a40.7,40.7,0,0,1-1.06,9.23,40.46,40.46,0,0,0,17.77-9.23,40.46,40.46,0,0,0-17.77-9.23,40.7,40.7,0,0,1,1.06,9.23" fill="#685ba8"/><path d="M61.64,84.6a40.46,40.46,0,0,0,9.23,17.76A40.47,40.47,0,0,0,80.09,84.6a40.89,40.89,0,0,1-18.46,0" fill="#8070b3"/><path d="M43.88,75.37a40.46,40.46,0,0,1,17.76-9.23,40.46,40.46,0,0,1,9.23-17.76A40.63,40.63,0,0,0,31.35,35.85,40.63,40.63,0,0,0,43.88,75.37" fill="#2587c8"/><path d="M61.64,66.14a40.46,40.46,0,0,0-17.76,9.23A40.46,40.46,0,0,0,61.64,84.6a40.89,40.89,0,0,1,0-18.46" fill="#2574bb"/><path d="M80.09,66.14a40.89,40.89,0,0,0-18.46,0,40.89,40.89,0,0,0,0,18.46,40.89,40.89,0,0,0,18.46,0,40.9,40.9,0,0,0,0-18.46" fill="#1b58a8"/><path d="M80.09,66.14a40.46,40.46,0,0,0-9.23-17.76,40.46,40.46,0,0,0-9.23,17.76,40.89,40.89,0,0,1,18.46,0" fill="#4090ce"/><path d="M70.87,102.36A40.46,40.46,0,0,1,61.64,84.6a40.46,40.46,0,0,1-17.76-9.23,40.63,40.63,0,0,0-12.53,39.52,40.63,40.63,0,0,0,39.52-12.53" fill="#5496d0"/></g></g></g><g id="9ec9aea1-86df-4274-8155-859915b298be" data-name="CMYK"><path d="M70.87,102.36a40.63,40.63,0,0,1-39.52,12.53,40.59,40.59,0,0,0,79,0,40.64,40.64,0,0,1-39.52-12.53" fill="#7559a6"/><path d="M141.73,75.37a40.59,40.59,0,0,0-31.35-39.52A40.63,40.63,0,0,1,97.86,75.37a40.63,40.63,0,0,1,12.53,39.52,40.59,40.59,0,0,0,31.35-39.52" fill="#74c161"/><path d="M70.87,48.38a40.63,40.63,0,0,1,39.52-12.53,40.59,40.59,0,0,0-79,0A40.63,40.63,0,0,1,70.87,48.38" fill="#0d4ba0"/><path d="M43.88,75.37A40.63,40.63,0,0,1,31.35,35.85a40.59,40.59,0,0,0,0,79A40.64,40.64,0,0,1,43.88,75.37" fill="#33c3e0"/><path d="M97.86,75.37A40.47,40.47,0,0,1,80.09,84.6a40.46,40.46,0,0,1-9.23,17.76,40.63,40.63,0,0,0,39.52,12.53A40.64,40.64,0,0,0,97.86,75.37" fill="#7b62aa"/><path d="M70.87,48.38a40.46,40.46,0,0,1,9.23,17.76,40.47,40.47,0,0,1,17.77,9.23,40.64,40.64,0,0,0,12.53-39.52A40.63,40.63,0,0,0,70.87,48.38" fill="#5cbc6e"/><path d="M81.15,75.37a40.7,40.7,0,0,1-1.06,9.23,40.46,40.46,0,0,0,17.77-9.23,40.46,40.46,0,0,0-17.77-9.23,40.7,40.7,0,0,1,1.06,9.23" fill="#685ba8"/><path d="M61.64,84.6a40.46,40.46,0,0,0,9.23,17.76A40.47,40.47,0,0,0,80.09,84.6a40.89,40.89,0,0,1-18.46,0" fill="#8070b3"/><path d="M43.88,75.37a40.46,40.46,0,0,1,17.76-9.23,40.46,40.46,0,0,1,9.23-17.76A40.63,40.63,0,0,0,31.35,35.85,40.63,40.63,0,0,0,43.88,75.37" fill="#2587c8"/><path d="M61.64,66.14a40.46,40.46,0,0,0-17.76,9.23A40.46,40.46,0,0,0,61.64,84.6a40.89,40.89,0,0,1,0-18.46" fill="#2574bb"/><path d="M80.09,66.14a40.89,40.89,0,0,0-18.46,0,40.89,40.89,0,0,0,0,18.46,40.89,40.89,0,0,0,18.46,0,40.9,40.9,0,0,0,0-18.46" fill="#1b58a8"/><path d="M80.09,66.14a40.46,40.46,0,0,0-9.23-17.76,40.46,40.46,0,0,0-9.23,17.76,40.89,40.89,0,0,1,18.46,0" fill="#4090ce"/><path d="M70.87,102.36A40.46,40.46,0,0,1,61.64,84.6a40.46,40.46,0,0,1-17.76-9.23,40.63,40.63,0,0,0-12.53,39.52,40.63,40.63,0,0,0,39.52-12.53" fill="#5496d0"/></g></g><g id="67ad75b7-1a59-4ba7-981d-589bfc5220c2" data-name="Cloud-Services"><path d="M202.43,194.72a21.57,21.57,0,0,1-8-1.48,19.73,19.73,0,0,1-6.58-4.22,20,20,0,0,1-4.47-6.61,23.72,23.72,0,0,1,0-17.47,19.86,19.86,0,0,1,11.12-10.86,20.91,20.91,0,0,1,7.78-1.48,21.59,21.59,0,0,1,7.38,1.17,17.72,17.72,0,0,1,5.47,3.08,16.62,16.62,0,0,1,3.65,4.3,19,19,0,0,1,2,4.84l-7.41,2.34a12.14,12.14,0,0,0-1.14-2.91,9.11,9.11,0,0,0-2.14-2.62,11.17,11.17,0,0,0-3.28-1.88,13.49,13.49,0,0,0-9.06.08,11.83,11.83,0,0,0-4,2.48A12.14,12.14,0,0,0,191,167.7a15.29,15.29,0,0,0-1.08,6,14.52,14.52,0,0,0,1.05,5.73,12.49,12.49,0,0,0,2.79,4.16,12,12,0,0,0,4,2.56,12.74,12.74,0,0,0,4.7.88,12.38,12.38,0,0,0,4.53-.77,11.18,11.18,0,0,0,3.33-2,10.77,10.77,0,0,0,2.22-2.65,12.14,12.14,0,0,0,1.25-2.88l7.35,2.22a18.22,18.22,0,0,1-2,4.76,17.18,17.18,0,0,1-3.71,4.42,19.25,19.25,0,0,1-5.53,3.28A20.17,20.17,0,0,1,202.43,194.72Z" fill="#33c3e0"/><path d="M226.54,193.86V153.45h7.87v32.89h18v7.52Z" fill="#33c3e0"/><path d="M253.62,173.69a21.74,21.74,0,0,1,1.71-8.81,20.45,20.45,0,0,1,4.56-6.64,19.68,19.68,0,0,1,6.61-4.19,21.64,21.64,0,0,1,7.87-1.45,21.87,21.87,0,0,1,7.89,1.45,19.63,19.63,0,0,1,6.64,4.19,20.47,20.47,0,0,1,4.56,6.64,23.46,23.46,0,0,1,0,17.58,20.53,20.53,0,0,1-4.56,6.61,19.63,19.63,0,0,1-6.64,4.19,21.85,21.85,0,0,1-7.89,1.45,21.62,21.62,0,0,1-7.87-1.45,19.68,19.68,0,0,1-6.61-4.19,20.51,20.51,0,0,1-4.56-6.61A21.53,21.53,0,0,1,253.62,173.69Zm8.15-.06a15.08,15.08,0,0,0,1.08,6,11.81,11.81,0,0,0,6.93,6.67,13.2,13.2,0,0,0,4.59.83,13.44,13.44,0,0,0,4.62-.83,11.76,11.76,0,0,0,7-6.67,16.92,16.92,0,0,0,0-11.91,11.76,11.76,0,0,0-7-6.67,13.46,13.46,0,0,0-4.62-.83,13.22,13.22,0,0,0-4.59.83,11.81,11.81,0,0,0-6.93,6.67A15.09,15.09,0,0,0,261.77,173.63Z" fill="#33c3e0"/><path d="M316,194.78a18.58,18.58,0,0,1-6.07-1,13.55,13.55,0,0,1-4.9-2.91,14,14,0,0,1-3.31-4.79,16.45,16.45,0,0,1-1.23-6.55V153.45h7.87V179q0,4,2.05,6a7.55,7.55,0,0,0,5.59,2.05,7.63,7.63,0,0,0,5.64-2.05q2.05-2.05,2.05-6V153.45h7.87v26.11a16.47,16.47,0,0,1-1.23,6.55A14,14,0,0,1,327,190.9a13.52,13.52,0,0,1-4.93,2.91A18.83,18.83,0,0,1,316,194.78Z" fill="#33c3e0"/><path d="M339.23,193.86V153.45h14.48a22.56,22.56,0,0,1,8,1.37,17.86,17.86,0,0,1,6.3,4,18.3,18.3,0,0,1,4.16,6.36,25,25,0,0,1,0,17.1,17.81,17.81,0,0,1-4.19,6.33,18.35,18.35,0,0,1-6.33,3.93,22.56,22.56,0,0,1-8,1.37Zm14.14-7.3a14.2,14.2,0,0,0,4.67-.77,10.41,10.41,0,0,0,3.88-2.37,11.36,11.36,0,0,0,2.62-4,17.41,17.41,0,0,0,0-11.46,11.58,11.58,0,0,0-2.59-4,10.47,10.47,0,0,0-3.85-2.39,13.72,13.72,0,0,0-4.67-.8H347.1v25.82Z" fill="#33c3e0"/><path d="M412.42,165.25a9.46,9.46,0,0,0-.6-1.85,5.92,5.92,0,0,0-1.28-1.85,6.87,6.87,0,0,0-2.19-1.43,8.4,8.4,0,0,0-3.28-.57,7.52,7.52,0,0,0-2.59.43,6.37,6.37,0,0,0-2,1.14,5.22,5.22,0,0,0-1.28,1.62,4.27,4.27,0,0,0-.46,1.94,4.2,4.2,0,0,0,1.08,2.88,5.81,5.81,0,0,0,3.31,1.68l5.64,1.08a16.54,16.54,0,0,1,4.85,1.65,13.26,13.26,0,0,1,3.53,2.71,11.07,11.07,0,0,1,2.17,3.51,11.25,11.25,0,0,1,.74,4,11.51,11.51,0,0,1-1,4.59,11.89,11.89,0,0,1-2.82,4,14.38,14.38,0,0,1-4.56,2.82,16.74,16.74,0,0,1-6.24,1.08,18.64,18.64,0,0,1-7-1.17,15.64,15.64,0,0,1-4.87-3,12.76,12.76,0,0,1-3-4.08,14.22,14.22,0,0,1-1.25-4.42l7.3-1.94a8.72,8.72,0,0,0,.71,2.85,7.62,7.62,0,0,0,1.68,2.42,7.93,7.93,0,0,0,2.68,1.68,10.24,10.24,0,0,0,3.76.63,7.45,7.45,0,0,0,4.87-1.4,4.43,4.43,0,0,0,1.68-3.56,4.21,4.21,0,0,0-1.25-3,6.71,6.71,0,0,0-3.65-1.74l-5.64-1.14a14.26,14.26,0,0,1-7.72-4,10.53,10.53,0,0,1-2.88-7.61,11.35,11.35,0,0,1,1.11-5,12.6,12.6,0,0,1,3-4,14.46,14.46,0,0,1,4.5-2.68,15.2,15.2,0,0,1,5.42-1,17.43,17.43,0,0,1,6.24,1,13.73,13.73,0,0,1,4.3,2.54,11.67,11.67,0,0,1,2.65,3.39,14,14,0,0,1,1.28,3.56Z" fill="#33c3e0"/><path d="M425.59,193.86V153.45h25.31v7.41H433.45v9.23h15.79v7H433.45v9.35h17.44v7.41Z" fill="#33c3e0"/><path d="M469.65,178.3h-4.1v15.56h-7.92V153.45h15.79a13.94,13.94,0,0,1,5.33,1,12.41,12.41,0,0,1,4,2.62,11.38,11.38,0,0,1,2.59,3.93,13.09,13.09,0,0,1,.91,4.9,11.39,11.39,0,0,1-8.61,11.46l8.66,16.53h-8.78Zm2.28-6.78A6.6,6.6,0,0,0,476.6,170a5.27,5.27,0,0,0,1.65-4,5.34,5.34,0,0,0-1.65-4.1,6.61,6.61,0,0,0-4.67-1.54h-6.38v11.23Z" fill="#33c3e0"/><path d="M517.47,153.45h8.32l-15,40.41h-8.09l-14.93-40.41h8.61l10.54,30Z" fill="#33c3e0"/><path d="M529.84,193.86V153.45h8v40.41Z" fill="#33c3e0"/><path d="M564.21,194.72a21.57,21.57,0,0,1-8-1.48,19.73,19.73,0,0,1-6.58-4.22,20,20,0,0,1-4.47-6.61,23.71,23.71,0,0,1,0-17.47,19.85,19.85,0,0,1,11.12-10.86,20.91,20.91,0,0,1,7.78-1.48,21.59,21.59,0,0,1,7.38,1.17,17.73,17.73,0,0,1,5.47,3.08,16.6,16.6,0,0,1,3.65,4.3,18.94,18.94,0,0,1,2,4.84l-7.41,2.34a12.14,12.14,0,0,0-1.14-2.91,9.11,9.11,0,0,0-2.14-2.62,11.17,11.17,0,0,0-3.28-1.88,13.49,13.49,0,0,0-9.06.08,11.84,11.84,0,0,0-4,2.48,12.14,12.14,0,0,0-2.85,4.22,15.29,15.29,0,0,0-1.08,6,14.52,14.52,0,0,0,1.05,5.73,12.48,12.48,0,0,0,2.79,4.16,12,12,0,0,0,4,2.56,12.74,12.74,0,0,0,4.7.88,12.38,12.38,0,0,0,4.53-.77,11.18,11.18,0,0,0,3.33-2,10.78,10.78,0,0,0,2.22-2.65,12.16,12.16,0,0,0,1.25-2.88L582.9,181a18.2,18.2,0,0,1-2,4.76,17.18,17.18,0,0,1-3.71,4.42,19.25,19.25,0,0,1-5.53,3.28A20.17,20.17,0,0,1,564.21,194.72Z" fill="#33c3e0"/><path d="M588.32,193.86V153.45h25.31v7.41H596.19v9.23H612v7H596.19v9.35h17.44v7.41Z" fill="#33c3e0"/><path d="M640.47,165.25a9.46,9.46,0,0,0-.6-1.85,5.92,5.92,0,0,0-1.28-1.85,6.88,6.88,0,0,0-2.2-1.43,8.39,8.39,0,0,0-3.28-.57,7.52,7.52,0,0,0-2.59.43,6.36,6.36,0,0,0-2,1.14,5.22,5.22,0,0,0-1.28,1.62,4.27,4.27,0,0,0-.46,1.94,4.21,4.21,0,0,0,1.08,2.88,5.82,5.82,0,0,0,3.31,1.68l5.64,1.08a16.54,16.54,0,0,1,4.84,1.65,13.24,13.24,0,0,1,3.53,2.71,11.07,11.07,0,0,1,2.17,3.51,11.26,11.26,0,0,1,.74,4,11.51,11.51,0,0,1-1,4.59,11.88,11.88,0,0,1-2.82,4,14.38,14.38,0,0,1-4.56,2.82,16.74,16.74,0,0,1-6.24,1.08,18.63,18.63,0,0,1-7-1.17,15.65,15.65,0,0,1-4.87-3,12.77,12.77,0,0,1-3-4.08,14.24,14.24,0,0,1-1.25-4.42l7.3-1.94a8.72,8.72,0,0,0,.71,2.85,7.59,7.59,0,0,0,1.68,2.42,7.91,7.91,0,0,0,2.68,1.68,10.24,10.24,0,0,0,3.76.63,7.45,7.45,0,0,0,4.87-1.4,4.43,4.43,0,0,0,1.68-3.56,4.21,4.21,0,0,0-1.25-3,6.71,6.71,0,0,0-3.65-1.74l-5.64-1.14a14.26,14.26,0,0,1-7.72-4,10.53,10.53,0,0,1-2.88-7.61,11.35,11.35,0,0,1,1.11-5,12.61,12.61,0,0,1,3-4,14.46,14.46,0,0,1,4.5-2.68,15.2,15.2,0,0,1,5.42-1,17.43,17.43,0,0,1,6.24,1,13.73,13.73,0,0,1,4.3,2.54,11.67,11.67,0,0,1,2.65,3.39,13.93,13.93,0,0,1,1.28,3.56Z" fill="#33c3e0"/></g></svg>