<svg data-name="Layer 1" xmlns="http://www.w3.org/2000/svg" xmlns:xlink="http://www.w3.org/1999/xlink" viewBox="0 0 948.57 208.34"><defs><clipPath id="f41a35b9-111b-42a3-a722-c534c4cd99f0" transform="translate(-1.36 -0.95)"><rect x="1.36" y="5.45" width="141.73" height="141.73" fill="none"/></clipPath><clipPath id="bf120bc1-e9e8-41c0-8779-2039442b31be" transform="translate(-1.36 -0.95)"><rect x="-44.01" y="-5.83" width="232.35" height="164.28" fill="none"/></clipPath></defs><path d="M275,38.19a36.6,36.6,0,0,0-26.15,11.55A32.29,32.29,0,0,0,224,38.19c-7.14,0-15,2.28-20,7.45V39.85H184v74h21V65.55c2-3.5,8.78-9.12,17.14-9.12A14.93,14.93,0,0,1,233.33,61c2.28,2.58,3.71,5.93,3.71,12.62v40.25h19V74.37a68.79,68.79,0,0,0-.31-8.21c2.58-3.8,9.42-9.73,17.94-9.73A14.41,14.41,0,0,1,284.58,61c2.28,2.58,3.46,5.93,3.46,12.62v40.25h19V74.37c0-10.95-2.09-18.55-6.81-24.32A32.29,32.29,0,0,0,275,38.19Z" transform="translate(-1.36 -0.95)" fill="#fff"/><path d="M457.14,96.71c-12,0-20.37-8.51-20.37-20.06,0-11.25,8.51-20.22,19.91-20.22a21.35,21.35,0,0,1,17,8.82l14-12.31a39.33,39.33,0,0,0-31-14.74c-22.5,0-39.67,17-39.67,38.46C417,97.93,433.73,115,456.53,115c13.83,0,24.78-5,33.44-16.57L474.77,87A21.6,21.6,0,0,1,457.14,96.71Z" transform="translate(-1.36 -0.95)" fill="#fff"/><path d="M644,87.59c-3,3.5-8.63,9.12-17,9.12a15.08,15.08,0,0,1-11.23-4.56c-2.28-2.58-3.78-5.93-3.78-12.62V39.85H593V78.77c0,10.95,2.58,18.55,7.29,24.32A31,31,0,0,0,624.77,115c7.14,0,14.27-2.28,19.27-7.45v6.35h19v-74H644Z" transform="translate(-1.36 -0.95)" fill="#fff"/><path d="M799,47.16v-7.3H780v74h20V67.07c2-4.41,9.36-10.64,18-10.64a27.84,27.84,0,0,1,7.19.76l2.3-18.39a42.9,42.9,0,0,0-6.88-.61C811.7,38.19,803,41.69,799,47.16Z" transform="translate(-1.36 -0.95)" fill="#fff"/><path d="M852.65.95a12.62,12.62,0,1,0,12.92,12.62A12.65,12.65,0,0,0,852.65.95Z" transform="translate(-1.36 -0.95)" fill="#fff"/><rect x="840.68" y="38.91" width="20" height="74" fill="#fff"/><path d="M949.93,76.06c0-20.52-14.44-37.78-34.81-37.78-21.89,0-35.87,17.89-35.87,38.42,0,23.1,16.57,38.28,38.61,38.28,11.4,0,23.1-4.72,30.25-13.24L936.86,90.49c-3.5,3.8-10.19,8.68-18.55,8.68-10.49,0-18.85-7.31-19.91-17.31h51.07A37.51,37.51,0,0,0,949.93,76.06Zm-50.62-8.2c.91-7,7.6-12.92,15.81-12.92a14.34,14.34,0,0,1,14.59,12.92Z" transform="translate(-1.36 -0.95)" fill="#fff"/><path d="M380,45.64c-5-4.71-12.6-7.45-21-7.45-20.06,0-35.87,16.72-35.87,38.46a39.68,39.68,0,0,0,9.58,25.84A35.89,35.89,0,0,0,360.07,115c7.45,0,15-2.28,20-7.45v6.35h21v-74H380Zm-16.65,51a20.11,20.11,0,1,1,20.11-20.11A20.11,20.11,0,0,1,363.4,96.65Z" transform="translate(-1.36 -0.95)" fill="#fff"/><path d="M577.19,76.65c0-21.28-16.87-38.46-39.22-38.46s-39.22,17.18-39.22,38.46a38,38,0,0,0,31.93,37.67l35.75,21.58,10.75-17.8-16.52-10A37.76,37.76,0,0,0,577.19,76.65ZM537.64,56.43a20.11,20.11,0,1,1-20.11,20.11A20.11,20.11,0,0,1,537.64,56.43Z" transform="translate(-1.36 -0.95)" fill="#fff"/><path d="M737,45.64c-4-4.71-12.56-7.45-20.92-7.45-20.06,0-35.84,16.72-35.84,38.46a39.69,39.69,0,0,0,9.59,25.84A35.81,35.81,0,0,0,717.1,115c7.45,0,15.94-2.28,19.94-7.45v6.35h20v-74H737Zm-16.56,51a20.11,20.11,0,1,1,20.11-20.11A20.11,20.11,0,0,1,720.48,96.65Z" transform="translate(-1.36 -0.95)" fill="#fff"/><g id="d2efd483-d599-439e-af4f-ca5258046359" data-name="PMS"><g clip-path="url(#f41a35b9-111b-42a3-a722-c534c4cd99f0)"><g clip-path="url(#bf120bc1-e9e8-41c0-8779-2039442b31be)"><path d="M72.23,103.3a40.63,40.63,0,0,1-39.52,12.53,40.59,40.59,0,0,0,79,0A40.64,40.64,0,0,1,72.23,103.3" transform="translate(-1.36 -0.95)" fill="#7559a4"/><path d="M143.09,76.31a40.59,40.59,0,0,0-31.35-39.52A40.63,40.63,0,0,1,99.22,76.31a40.63,40.63,0,0,1,12.53,39.52,40.59,40.59,0,0,0,31.35-39.52" transform="translate(-1.36 -0.95)" fill="#74c060"/><path d="M72.23,49.32a40.63,40.63,0,0,1,39.52-12.53,40.59,40.59,0,0,0-79,0A40.63,40.63,0,0,1,72.23,49.32" transform="translate(-1.36 -0.95)" fill="#0d4b9f"/><path d="M45.23,76.31A40.63,40.63,0,0,1,32.71,36.79a40.59,40.59,0,0,0,0,79A40.64,40.64,0,0,1,45.23,76.31" transform="translate(-1.36 -0.95)" fill="#33c2df"/><path d="M99.22,76.31a40.47,40.47,0,0,1-17.77,9.23,40.46,40.46,0,0,1-9.23,17.76,40.63,40.63,0,0,0,39.52,12.53A40.64,40.64,0,0,0,99.22,76.31" transform="translate(-1.36 -0.95)" fill="#7b61a9"/><path d="M72.23,49.32a40.46,40.46,0,0,1,9.23,17.76,40.47,40.47,0,0,1,17.77,9.23,40.64,40.64,0,0,0,12.53-39.52A40.63,40.63,0,0,0,72.23,49.32" transform="translate(-1.36 -0.95)" fill="#5bbb6d"/><path d="M82.51,76.31a40.7,40.7,0,0,1-1.06,9.23,40.46,40.46,0,0,0,17.77-9.23,40.46,40.46,0,0,0-17.77-9.23,40.7,40.7,0,0,1,1.06,9.23" transform="translate(-1.36 -0.95)" fill="#685ba7"/><path d="M63,85.54a40.46,40.46,0,0,0,9.23,17.76,40.47,40.47,0,0,0,9.23-17.76,40.89,40.89,0,0,1-18.46,0" transform="translate(-1.36 -0.95)" fill="#8070b1"/><path d="M45.23,76.31A40.46,40.46,0,0,1,63,67.09a40.46,40.46,0,0,1,9.23-17.76A40.63,40.63,0,0,0,32.71,36.79,40.63,40.63,0,0,0,45.23,76.31" transform="translate(-1.36 -0.95)" fill="#2485c7"/><path d="M63,67.09a40.46,40.46,0,0,0-17.76,9.23A40.46,40.46,0,0,0,63,85.54a40.89,40.89,0,0,1,0-18.46" transform="translate(-1.36 -0.95)" fill="#2374ba"/><path d="M81.45,67.08a40.89,40.89,0,0,0-18.46,0,40.89,40.89,0,0,0,0,18.46,40.89,40.89,0,0,0,18.46,0,40.9,40.9,0,0,0,0-18.46" transform="translate(-1.36 -0.95)" fill="#1a58a7"/><path d="M81.45,67.08a40.46,40.46,0,0,0-9.23-17.76A40.46,40.46,0,0,0,63,67.09a40.89,40.89,0,0,1,18.46,0" transform="translate(-1.36 -0.95)" fill="#3f8fcd"/><path d="M72.23,103.3A40.46,40.46,0,0,1,63,85.54a40.46,40.46,0,0,1-17.76-9.23,40.63,40.63,0,0,0-12.53,39.52A40.63,40.63,0,0,0,72.23,103.3" transform="translate(-1.36 -0.95)" fill="#5495cf"/></g></g></g><g id="d6d535ab-7f4c-4f40-9114-9aba7708b826" data-name="CMYK"><path d="M72.23,103.3a40.63,40.63,0,0,1-39.52,12.53,40.59,40.59,0,0,0,79,0A40.64,40.64,0,0,1,72.23,103.3" transform="translate(-1.36 -0.95)" fill="#7559a4"/><path d="M143.09,76.31a40.59,40.59,0,0,0-31.35-39.52A40.63,40.63,0,0,1,99.22,76.31a40.63,40.63,0,0,1,12.53,39.52,40.59,40.59,0,0,0,31.35-39.52" transform="translate(-1.36 -0.95)" fill="#74c060"/><path d="M72.23,49.32a40.63,40.63,0,0,1,39.52-12.53,40.59,40.59,0,0,0-79,0A40.63,40.63,0,0,1,72.23,49.32" transform="translate(-1.36 -0.95)" fill="#0d4b9f"/><path d="M45.23,76.31A40.63,40.63,0,0,1,32.71,36.79a40.59,40.59,0,0,0,0,79A40.64,40.64,0,0,1,45.23,76.31" transform="translate(-1.36 -0.95)" fill="#33c2df"/><path d="M99.22,76.31a40.47,40.47,0,0,1-17.77,9.23,40.46,40.46,0,0,1-9.23,17.76,40.63,40.63,0,0,0,39.52,12.53A40.64,40.64,0,0,0,99.22,76.31" transform="translate(-1.36 -0.95)" fill="#7b61a9"/><path d="M72.23,49.32a40.46,40.46,0,0,1,9.23,17.76,40.47,40.47,0,0,1,17.77,9.23,40.64,40.64,0,0,0,12.53-39.52A40.63,40.63,0,0,0,72.23,49.32" transform="translate(-1.36 -0.95)" fill="#5bbb6d"/><path d="M82.51,76.31a40.7,40.7,0,0,1-1.06,9.23,40.46,40.46,0,0,0,17.77-9.23,40.46,40.46,0,0,0-17.77-9.23,40.7,40.7,0,0,1,1.06,9.23" transform="translate(-1.36 -0.95)" fill="#685ba7"/><path d="M63,85.54a40.46,40.46,0,0,0,9.23,17.76,40.47,40.47,0,0,0,9.23-17.76,40.89,40.89,0,0,1-18.46,0" transform="translate(-1.36 -0.95)" fill="#8070b1"/><path d="M45.23,76.31A40.46,40.46,0,0,1,63,67.09a40.46,40.46,0,0,1,9.23-17.76A40.63,40.63,0,0,0,32.71,36.79,40.63,40.63,0,0,0,45.23,76.31" transform="translate(-1.36 -0.95)" fill="#2485c7"/><path d="M63,67.09a40.46,40.46,0,0,0-17.76,9.23A40.46,40.46,0,0,0,63,85.54a40.89,40.89,0,0,1,0-18.46" transform="translate(-1.36 -0.95)" fill="#2374ba"/><path d="M81.45,67.08a40.89,40.89,0,0,0-18.46,0,40.89,40.89,0,0,0,0,18.46,40.89,40.89,0,0,0,18.46,0,40.9,40.9,0,0,0,0-18.46" transform="translate(-1.36 -0.95)" fill="#1a58a7"/><path d="M81.45,67.08a40.46,40.46,0,0,0-9.23-17.76A40.46,40.46,0,0,0,63,67.09a40.89,40.89,0,0,1,18.46,0" transform="translate(-1.36 -0.95)" fill="#3f8fcd"/><path d="M72.23,103.3A40.46,40.46,0,0,1,63,85.54a40.46,40.46,0,0,1-17.76-9.23,40.63,40.63,0,0,0-12.53,39.52A40.63,40.63,0,0,0,72.23,103.3" transform="translate(-1.36 -0.95)" fill="#5495cf"/></g><text transform="translate(179.52 193.86)" font-size="57" fill="#33c2df" font-family="Circular-Pro-Bold, Circular-Pro-Book" font-weight="700" letter-spacing="-0.02em">C<tspan x="42.41" y="0" letter-spacing="-0.04em">L</tspan><tspan x="71.88" y="0" letter-spacing="-0.02em">OUD SE</tspan><tspan x="273.48" y="0" letter-spacing="-0.02em">R</tspan><tspan x="307.68" y="0" letter-spacing="-0.02em">VICES</tspan></text></svg>