<svg id="Layer_1" data-name="Layer 1" xmlns="http://www.w3.org/2000/svg" viewBox="0 0 100 100"><defs><style>.cls-1,.cls-2{fill:none;stroke:#000;stroke-linecap:round;opacity:0.7;isolation:isolate;}.cls-1{stroke-miterlimit:10;stroke-width:6.22px;}.cls-2{stroke-linejoin:round;stroke-width:5.53px;}</style></defs><title>Server Listing Icons</title><g id="Stroke"><polygon class="cls-1" points="59.53 16.28 67.27 20.51 78.73 13.83 85.53 20.51 80.07 32.22 82.86 40.81 95.66 44.76 95.66 54.7 83.67 58.38 79.67 66.88 85.27 79.09 79 85.35 68.47 79.91 58.06 84.81 54.86 97.07 46.47 97.07 41.67 83.72 33.72 80.18 21.27 86.85 14.6 79.91 20.2 68.05 16.2 59.2 4.34 55.45 4.34 45.85 16.73 41.62 20.2 32.35 14.07 20.78 21.13 13.83 31.4 19.68 41.8 15.33 45.53 2.93 54.86 2.93 59.53 16.28"/><ellipse class="cls-2" cx="49.94" cy="49.64" rx="15.44" ry="15.78"/></g><g id="Fill"><circle cx="54.77" cy="3.01" r="3.01"/><circle cx="45.65" cy="3.01" r="3.01"/><circle cx="21.15" cy="13.87" r="3.01"/><circle cx="14.21" cy="21.2" r="3.01"/><circle cx="78.46" cy="13.87" r="3.01"/><circle cx="85.58" cy="20.52" r="3.01"/><circle cx="95.66" cy="45.1" r="3.01"/><circle cx="95.66" cy="54.48" r="3.01"/><circle cx="85.03" cy="78.94" r="3.01"/><circle cx="79.01" cy="84.96" r="3.01"/><circle cx="54.75" cy="96.99" r="3.01"/><circle cx="46.93" cy="96.99" r="3.01"/><circle cx="21.15" cy="86.42" r="3.01"/><circle cx="14.68" cy="79.54" r="3.01"/><circle cx="4.34" cy="55.27" r="3.01"/><circle cx="4.34" cy="46.01" r="3.01"/></g></svg>