<?xml version="1.0" encoding="utf-8"?>
<!-- Generator: Adobe Illustrator 21.0.0, SVG Export Plug-In . SVG Version: 6.00 Build 0)  -->
<svg version="1.1" xmlns="http://www.w3.org/2000/svg" xmlns:xlink="http://www.w3.org/1999/xlink" x="0px" y="0px"
	 viewBox="0 0 90 90" style="enable-background:new 0 0 90 90;" xml:space="preserve">
<style type="text/css">
	.st0{display:none;}
	.st1{display:inline;opacity:0.29;}
	.st2{fill:none;stroke:#FFFFFF;stroke-width:0.25;stroke-miterlimit:10;}
	.st3{fill:none;stroke:#FFFFFF;stroke-width:0.25;stroke-miterlimit:10;stroke-dasharray:3.01,3.01;}
	.st4{fill:none;stroke:#FFFFFF;stroke-width:0.25;stroke-miterlimit:10;stroke-dasharray:3,3;}
	.st5{display:inline;opacity:0.29;fill:#FFFFFF;}
	.st6{font-family:'MyriadPro-Regular';}
	.st7{font-size:6.0202px;}
</style>
<g id="Layer_1">
</g>
<g id="icon">
	<g>
		<rect x="5.9" y="16.1" width="24.2" height="57.8"/>
		<rect x="32.9" y="16.1" width="24.2" height="57.8"/>
		<rect x="59.9" y="16.1" width="24.2" height="57.8"/>
	</g>
</g>
<g id="Layer_4">
</g>
<g id="_x2A_delete_when_export_x2A__guide" class="st0">
	<g class="st1">
		<g>
			<polyline class="st2" points="84.1,82.5 84.1,84 82.6,84 			"/>
			<line class="st3" x1="79.6" y1="84" x2="8.9" y2="84"/>
			<polyline class="st2" points="7.4,84 5.9,84 5.9,82.5 			"/>
			<line class="st4" x1="5.9" y1="79.5" x2="5.9" y2="9"/>
			<polyline class="st2" points="5.9,7.5 5.9,6 7.4,6 			"/>
			<line class="st3" x1="10.4" y1="6" x2="81.1" y2="6"/>
			<polyline class="st2" points="82.6,6 84.1,6 84.1,7.5 			"/>
			<line class="st4" x1="84.1" y1="10.5" x2="84.1" y2="81"/>
		</g>
	</g>
	<text transform="matrix(1 0 0 1 32.5 45)" class="st5 st6 st7">SAFE ZONE</text>
</g>
</svg>
