<svg version="1.2" xmlns="http://www.w3.org/2000/svg" height="24" width="24" viewBox="0 0 24 24" preserveAspectRatio="none" class="ng-element" data-id="c5b2cc960c4b4cd287a082471dddd81b">
  <g transform="translate(0, 0) rotate(0)">
    <path style="stroke-width: 0; stroke-linecap: butt; stroke-linejoin: miter; fill: rgb(0, 0, 0);" d="M12.25,7.4375v-7.4375h-10.9375c-0.72734,0 -1.3125,0.58516 -1.3125,1.3125v25.37499c0,0.72734 0.58516,1.3125 1.3125,1.3125h18.375c0.72734,0 1.3125,-0.58516 1.3125,-1.3125v-17.93749h-7.4375c-0.72188,0 -1.3125,-0.59062 -1.3125,-1.3125zM7,15.31249c0,0.24172 -0.19578,0.4375 -0.4375,0.4375h-0.4375c-0.48344,0 -0.875,0.39156 -0.875,0.875v1.75c0,0.48344 0.39156,0.875 0.875,0.875h0.4375c0.24172,0 0.4375,0.19578 0.4375,0.4375v0.875c0,0.24172 -0.19578,0.4375 -0.4375,0.4375h-0.4375c-1.44977,0 -2.625,-1.17523 -2.625,-2.625v-1.75c0,-1.44977 1.17523,-2.625 2.625,-2.625h0.4375c0.24172,0 0.4375,0.19578 0.4375,0.4375zM9.42102,20.99999h-0.67102c-0.24172,0 -0.4375,-0.19578 -0.4375,-0.4375v-0.875c0,-0.24172 0.19578,-0.4375 0.4375,-0.4375h0.67102c0.32539,0 0.5693,-0.19141 0.5693,-0.36203c0,-0.07109 -0.04102,-0.14547 -0.11594,-0.21l-1.19711,-1.02648c-0.4632,-0.39484 -0.72898,-0.95594 -0.72898,-1.53891c0,-1.16484 1.04016,-2.11203 2.3193,-2.11203h0.66992c0.24172,0 0.4375,0.19578 0.4375,0.4375v0.875c0,0.24172 -0.19578,0.4375 -0.4375,0.4375h-0.67102c-0.32539,0 -0.5693,0.19141 -0.5693,0.36203c0,0.07109 0.04102,0.14547 0.11594,0.21l1.19711,1.02648c0.4632,0.39484 0.72898,0.95594 0.72898,1.53891c0.00055,1.1643 -1.03906,2.11203 -2.3182,2.11203zM14,14.43749v1.1375c0,1.10852 0.31172,2.1968 0.875,3.11062c0.56328,-0.91328 0.875,-2.00211 0.875,-3.11062v-1.1375c0,-0.24172 0.19578,-0.4375 0.4375,-0.4375h0.875c0.24172,0 0.4375,0.19578 0.4375,0.4375v1.1375c0,1.94031 -0.70438,3.76742 -1.98406,5.14554c-0.16516,0.17773 -0.39758,0.27945 -0.64094,0.27945c-0.24336,0 -0.47578,-0.10172 -0.64094,-0.27945c-1.27969,-1.37812 -1.98406,-3.20523 -1.98406,-5.14554v-1.1375c0,-0.24172 0.19578,-0.4375 0.4375,-0.4375h0.875c0.24172,0 0.4375,0.19578 0.4375,0.4375zM20.61719,5.74219l-5.35391,-5.35937c-0.24609,-0.24609 -0.57969,-0.38281 -0.92969,-0.38281h-0.33359v7h7v-0.33359c0,-0.34453 -0.13672,-0.67812 -0.38281,-0.92422z"></path>
  </g>
  <defs>
    <path id="path-164308135118416" d="M12.25,7.4375v-7.4375h-10.9375c-0.72734,0 -1.3125,0.58516 -1.3125,1.3125v25.37499c0,0.72734 0.58516,1.3125 1.3125,1.3125h18.375c0.72734,0 1.3125,-0.58516 1.3125,-1.3125v-17.93749h-7.4375c-0.72188,0 -1.3125,-0.59062 -1.3125,-1.3125zM7,15.31249c0,0.24172 -0.19578,0.4375 -0.4375,0.4375h-0.4375c-0.48344,0 -0.875,0.39156 -0.875,0.875v1.75c0,0.48344 0.39156,0.875 0.875,0.875h0.4375c0.24172,0 0.4375,0.19578 0.4375,0.4375v0.875c0,0.24172 -0.19578,0.4375 -0.4375,0.4375h-0.4375c-1.44977,0 -2.625,-1.17523 -2.625,-2.625v-1.75c0,-1.44977 1.17523,-2.625 2.625,-2.625h0.4375c0.24172,0 0.4375,0.19578 0.4375,0.4375zM9.42102,20.99999h-0.67102c-0.24172,0 -0.4375,-0.19578 -0.4375,-0.4375v-0.875c0,-0.24172 0.19578,-0.4375 0.4375,-0.4375h0.67102c0.32539,0 0.5693,-0.19141 0.5693,-0.36203c0,-0.07109 -0.04102,-0.14547 -0.11594,-0.21l-1.19711,-1.02648c-0.4632,-0.39484 -0.72898,-0.95594 -0.72898,-1.53891c0,-1.16484 1.04016,-2.11203 2.3193,-2.11203h0.66992c0.24172,0 0.4375,0.19578 0.4375,0.4375v0.875c0,0.24172 -0.19578,0.4375 -0.4375,0.4375h-0.67102c-0.32539,0 -0.5693,0.19141 -0.5693,0.36203c0,0.07109 0.04102,0.14547 0.11594,0.21l1.19711,1.02648c0.4632,0.39484 0.72898,0.95594 0.72898,1.53891c0.00055,1.1643 -1.03906,2.11203 -2.3182,2.11203zM14,14.43749v1.1375c0,1.10852 0.31172,2.1968 0.875,3.11062c0.56328,-0.91328 0.875,-2.00211 0.875,-3.11062v-1.1375c0,-0.24172 0.19578,-0.4375 0.4375,-0.4375h0.875c0.24172,0 0.4375,0.19578 0.4375,0.4375v1.1375c0,1.94031 -0.70438,3.76742 -1.98406,5.14554c-0.16516,0.17773 -0.39758,0.27945 -0.64094,0.27945c-0.24336,0 -0.47578,-0.10172 -0.64094,-0.27945c-1.27969,-1.37812 -1.98406,-3.20523 -1.98406,-5.14554v-1.1375c0,-0.24172 0.19578,-0.4375 0.4375,-0.4375h0.875c0.24172,0 0.4375,0.19578 0.4375,0.4375zM20.61719,5.74219l-5.35391,-5.35937c-0.24609,-0.24609 -0.57969,-0.38281 -0.92969,-0.38281h-0.33359v7h7v-0.33359c0,-0.34453 -0.13672,-0.67812 -0.38281,-0.92422z"></path>
  </defs>
</svg>
