<svg data-name="a12bb682-76f1-4d7e-ab62-535cd03b8af8" xmlns="http://www.w3.org/2000/svg" viewBox="0 0 77.6 90"><g data-name="Stroke"><path d="M79.4,88H16.6a5.44,5.44,0,0,1-5.4-5.4V71.8a5.44,5.44,0,0,1,5.4-5.4H79.4a5.44,5.44,0,0,1,5.4,5.4V82.6A5.38,5.38,0,0,1,79.4,88Z" transform="translate(-9.2)" fill="none" stroke="#000" stroke-linecap="round" stroke-linejoin="round" stroke-width="4" opacity="0.7" style="isolation:isolate"/><path d="M41.8,5.1,13.6,41.9a7.77,7.77,0,0,0,6.2,12.5H76.1a7.77,7.77,0,0,0,6.2-12.5L54.2,5.1A7.79,7.79,0,0,0,41.8,5.1Z" transform="translate(-9.2)" fill="none" stroke="#000" stroke-linecap="round" stroke-linejoin="round" stroke-width="4" opacity="0.7" style="isolation:isolate"/></g><g data-name="Fill"><circle cx="10.2" cy="54.5" r="2"/><circle cx="38.8" cy="66.5" r="2"/><circle cx="2" cy="77.3" r="2"/><circle cx="75.6" cy="77.3" r="2"/><circle cx="67.5" cy="54.5" r="2"/><circle cx="38.8" cy="2" r="2"/><circle cx="73.6" cy="42.4" r="2"/><circle cx="3.1" cy="44.4" r="2"/><circle cx="38.8" cy="88" r="2"/></g></svg>