<svg id="Layer_1" data-name="Layer 1" xmlns="http://www.w3.org/2000/svg" viewBox="0 0 100 100"><defs><style>.cls-1{fill:none;stroke:#000;stroke-linecap:round;stroke-miterlimit:10;stroke-width:6.75px;opacity:0.7;}.cls-2{opacity:0.7;isolation:isolate;}</style></defs><title>error</title><line class="cls-1" x1="32.83" y1="28.01" x2="68.56" y2="73.02"/><line class="cls-1" x1="68.56" y1="28.01" x2="32.83" y2="73.02"/><circle cx="32.83" cy="28.01" r="2.45" transform="translate(-10.01 33.27) rotate(-47.47)"/><circle cx="50.69" cy="50.51" r="2.45" transform="translate(-20.8 53.72) rotate(-47.47)"/><circle cx="32.83" cy="73.02" r="2.45" transform="translate(-43.17 47.85) rotate(-47.47)"/><circle cx="68.56" cy="73.02" r="2.45" transform="translate(-31.59 74.18) rotate(-47.47)"/><circle cx="68.56" cy="28.01" r="2.45" transform="translate(1.57 59.6) rotate(-47.47)"/><path d="M50,100a2.57,2.57,0,1,1,2.57-2.57A2.57,2.57,0,0,1,50,100Z"/><path d="M50,5.24A2.57,2.57,0,1,1,52.6,2.68,2.57,2.57,0,0,1,50,5.24Z"/><path d="M2.68,52.6A2.57,2.57,0,1,1,5.24,50,2.57,2.57,0,0,1,2.68,52.6Z"/><path d="M97.43,52.6A2.57,2.57,0,1,1,100,50,2.57,2.57,0,0,1,97.43,52.6Z"/><path class="cls-2" d="M50,100A49.92,49.92,0,1,1,100,50h0A50,50,0,0,1,50,100ZM50,5.2A44.83,44.83,0,1,0,94.87,50h0A44.89,44.89,0,0,0,50,5.2Z"/></svg>