<svg xmlns="http://www.w3.org/2000/svg" viewBox="0 0 400 400"><defs><style>.cls-1{fill:none;stroke:#00bed8;stroke-linecap:round;stroke-linejoin:round;stroke-width:12px;opacity:1;}.cls-2{fill:#00bed8;}</style></defs><title>cloud-services-1-icon_hourglass</title><g id="Stroke"><rect class="cls-1" x="101.98" y="74.82" width="200.81" height="24.94" rx="6.48"/><rect class="cls-1" x="98.2" y="299.18" width="200.81" height="24.94" rx="6.48"/><polyline class="cls-1" points="274.71 99.77 274.71 153.7 202.12 200 129.53 153.7 129.53 99.77"/><polyline class="cls-1" points="274.71 299.24 274.71 245.3 202.12 199"/><polyline class="cls-1" points="129.53 299.24 129.53 245.3 202.12 199"/></g><g id="Fill"><path class="cls-2" d="M194.48,180.87a5,5,0,0,1-1.61-6.88h0a5,5,0,0,1,6.86-1.62h0a5,5,0,0,1,1.67,6.86v0h0a5,5,0,0,1-4.25,2.37h0A4.91,4.91,0,0,1,194.48,180.87Z"/><path class="cls-2" d="M198.69,205a6.52,6.52,0,0,1-2.1-8.95h0a6.48,6.48,0,0,1,8.92-2.11h0a6.51,6.51,0,0,1,2.17,8.93h0a6.48,6.48,0,0,1-5.52,3.09h0A6.51,6.51,0,0,1,198.69,205Z"/><path class="cls-2" d="M182.18,173.26a5,5,0,0,1-1.67-6.88h0a5,5,0,0,1,6.88-1.68h0a5,5,0,0,1,1.63,6.89h0a5,5,0,0,1-4.26,2.37h0A4.92,4.92,0,0,1,182.18,173.26Z"/><path class="cls-2" d="M169.83,165.6a5,5,0,0,1-1.68-6.87h0a5,5,0,0,1,6.9-1.62h0a5,5,0,0,1,1.62,6.88h0a5,5,0,0,1-4.27,2.37h0A5,5,0,0,1,169.83,165.6Z"/><path class="cls-2" d="M157.51,158a5,5,0,0,1-1.62-6.89h0a5,5,0,0,1,6.85-1.68h0a5,5,0,0,1,1.67,6.87v0h0a5,5,0,0,1-4.24,2.37h0a5,5,0,0,1-2.67-.68Z"/><path class="cls-2" d="M145.34,144.73a5,5,0,0,1,3.9-5.89h0a5,5,0,0,1,5.9,3.9h0a5,5,0,0,1-3.9,5.9h0a4.78,4.78,0,0,1-1,.1h0a5,5,0,0,1-4.91-4Z"/><path class="cls-2" d="M145.24,129.25a5,5,0,0,1,5-5h0a5,5,0,0,1,5,5h0a5,5,0,0,1-5,5h0a5,5,0,0,1-5-5Z"/><path class="cls-2" d="M145.24,114.76a5,5,0,0,1,5-5h0a5,5,0,0,1,5,5h0a5,5,0,0,1-5,5h0a5,5,0,0,1-5-5Z"/><path class="cls-2" d="M123.53,99.76a6,6,0,0,1,6-6h0a6,6,0,0,1,6,6h0a6,6,0,0,1-6,6h0a6,6,0,0,1-6-6Z"/><path class="cls-2" d="M252.89,285.23a5,5,0,0,1,5-5h0a5,5,0,0,1,5,5h0a5,5,0,0,1-5,5h0A5,5,0,0,1,252.89,285.23Z"/><path class="cls-2" d="M252.89,270.73a5,5,0,0,1,5-5h0a5,5,0,0,1,5,5h0a5,5,0,0,1-5,5h0a5,5,0,0,1-5-5Z"/><path class="cls-2" d="M252.77,257.25a5,5,0,0,1,3.9-5.9h0a5,5,0,0,1,5.9,3.9h0a5,5,0,0,1-3.91,5.9h0a4.19,4.19,0,0,1-1,.1h0a5,5,0,0,1-4.88-4Z"/><path class="cls-2" d="M245.3,250.51a5,5,0,0,1-1.67-6.87h0a5,5,0,0,1,6.85-1.68h0a5,5,0,0,1,1.68,6.87v0h0a5,5,0,0,1-4.25,2.37h0a4.91,4.91,0,0,1-2.61-.71Z"/><path class="cls-2" d="M233,242.9a5,5,0,0,1-1.62-6.89h0a5,5,0,0,1,6.84-1.68h0a5,5,0,0,1,1.67,6.87v0h0a5,5,0,0,1-4.24,2.37h0a5,5,0,0,1-2.66-.7Z"/><path class="cls-2" d="M220.65,235.24a5,5,0,0,1-1.61-6.89h0a5,5,0,0,1,6.86-1.61h0a5,5,0,0,1,1.66,6.87h0a5,5,0,0,1-4.24,2.38h0A5,5,0,0,1,220.65,235.24Z"/><path class="cls-2" d="M208.33,227.62a5,5,0,0,1-1.67-6.87h0a5,5,0,0,1,6.86-1.68h0a5,5,0,0,1,1.67,6.87h0a5,5,0,0,1-4.25,2.38h0a4.91,4.91,0,0,1-2.62-.68Z"/><path class="cls-2" d="M268.71,99.76a6,6,0,0,1,6-6h0a6,6,0,0,1,6,6h0a6,6,0,0,1-6,6h0a6,6,0,0,1-6-6Z"/><path class="cls-2" d="M123.53,299.18a6,6,0,0,1,6-6h0a6,6,0,0,1,6,6h0a6,6,0,0,1-6,6h0a6,6,0,0,1-6-6Z"/><path class="cls-2" d="M269.44,299.18a6,6,0,0,1,6-6h0a6,6,0,0,1,6,6h0a6,6,0,0,1-6,6h0a6,6,0,0,1-6-6Z"/></g></svg>
