<svg id="Layer_1" data-name="Layer 1" xmlns="http://www.w3.org/2000/svg" viewBox="0 0 19 19"><defs><style>.cls-1{fill:none;stroke:#231f20;stroke-linecap:round;stroke-linejoin:round;stroke-width:1.3px;}.cls-2{fill:#231f20;}</style></defs><title>servers</title><rect class="cls-1" x="1.11" y="5.8" width="16.88" height="7.41"/><rect class="cls-2" x="4.87" y="10.26" width="8.08" height="1.22" rx="0.31" ry="0.31"/><rect class="cls-2" x="3.16" y="8.65" width="2.96" height="1.22" rx="0.31" ry="0.31"/><rect class="cls-2" x="3.16" y="7.15" width="1.25" height="1.22" rx="0.31" ry="0.31"/><rect class="cls-2" x="3.16" y="10.26" width="1.25" height="1.22" rx="0.31" ry="0.31"/><rect class="cls-2" x="4.87" y="7.15" width="1.25" height="1.22" rx="0.31" ry="0.31"/><rect class="cls-2" x="6.57" y="7.15" width="1.25" height="1.22" rx="0.31" ry="0.31"/><rect class="cls-2" x="8.28" y="7.15" width="1.25" height="1.22" rx="0.31" ry="0.31"/><rect class="cls-2" x="9.99" y="7.15" width="1.25" height="1.22" rx="0.31" ry="0.31"/><rect class="cls-2" x="11.69" y="7.15" width="1.25" height="1.22" rx="0.31" ry="0.31"/><rect class="cls-2" x="13.4" y="7.15" width="1.25" height="1.22" rx="0.31" ry="0.31"/><rect class="cls-2" x="15.11" y="7.15" width="1.25" height="1.22" rx="0.31" ry="0.31"/><rect class="cls-2" x="6.57" y="8.65" width="1.25" height="1.22" rx="0.31" ry="0.31"/><rect class="cls-2" x="8.28" y="8.65" width="1.25" height="1.22" rx="0.31" ry="0.31"/><rect class="cls-2" x="9.99" y="8.65" width="1.25" height="1.22" rx="0.31" ry="0.31"/><rect class="cls-2" x="11.69" y="8.65" width="1.25" height="1.22" rx="0.31" ry="0.31"/><rect class="cls-2" x="13.4" y="8.65" width="1.25" height="1.22" rx="0.31" ry="0.31"/><rect class="cls-2" x="13.4" y="10.26" width="1.25" height="1.22" rx="0.31" ry="0.31"/><rect class="cls-2" x="15.11" y="8.65" width="1.25" height="2.83" rx="0.31" ry="0.31"/><path class="cls-1" d="M9.55,5.8s-.67-2,1.16-2.15a1.72,1.72,0,0,0,1.62-2"/></svg>