<svg id="Layer_1" data-name="Layer 1" xmlns="http://www.w3.org/2000/svg" viewBox="0 0 100 100"><defs><style>.cls-1{fill:none;stroke:#000;stroke-linecap:round;stroke-miterlimit:10;stroke-width:5.57px;opacity:0.7;isolation:isolate;}</style></defs><title>Server Listing Icons</title><ellipse cx="76.99" cy="11.99" rx="2.78" ry="2.8"/><ellipse cx="76.99" cy="38.24" rx="2.78" ry="2.8"/><ellipse cx="9.1" cy="89.39" rx="2.78" ry="2.8"/><ellipse cx="8.78" cy="65.36" rx="2.78" ry="2.8"/><ellipse cx="8.78" cy="38.24" rx="2.78" ry="2.8"/><ellipse cx="8.78" cy="11.99" rx="2.78" ry="2.8"/><ellipse cx="42.42" cy="97.2" rx="2.78" ry="2.8"/><ellipse cx="42.42" cy="74.06" rx="2.78" ry="2.8"/><ellipse cx="42.42" cy="46.96" rx="2.78" ry="2.8"/><ellipse cx="42.42" cy="20.17" rx="2.78" ry="2.8"/><ellipse cx="42.42" cy="2.8" rx="2.78" ry="2.8"/><ellipse class="cls-1" cx="42.88" cy="11.49" rx="34.1" ry="8.68"/><path class="cls-1" d="M77,38.24c0,4.82-15.27,8.68-34.1,8.68S8.78,43,8.78,38.24"/><path class="cls-1" d="M58.19,73.13a121.89,121.89,0,0,1-15.3,1c-18.83,0-34.1-3.89-34.1-8.68"/><line class="cls-1" x1="76.99" y1="53.21" x2="76.99" y2="11.99"/><path class="cls-1" d="M8.78,12.12V88.48c0,4.82,15.27,8.68,34.1,8.68A116.12,116.12,0,0,0,61.4,95.77"/><line class="cls-1" x1="77.05" y1="96.46" x2="77.05" y2="68.03"/><line class="cls-1" x1="62.95" y1="82.22" x2="91.22" y2="82.22"/><path d="M61.48,79.89a2.77,2.77,0,0,1,3.84.88,2.81,2.81,0,0,1-.87,3.86,2.77,2.77,0,0,1-3.84-.88A2.81,2.81,0,0,1,61.48,79.89Z"/><path d="M89.74,79.88a2.77,2.77,0,0,1,3.84.88,2.81,2.81,0,0,1-.87,3.86,2.77,2.77,0,0,1-3.84-.88A2.81,2.81,0,0,1,89.74,79.88Z"/><path d="M75.6,65.67a2.77,2.77,0,0,1,3.84.88,2.81,2.81,0,0,1-.87,3.86,2.77,2.77,0,0,1-3.84-.88A2.81,2.81,0,0,1,75.6,65.67Z"/><path d="M75.72,94.09a2.77,2.77,0,0,1,3.84.88,2.81,2.81,0,0,1-.87,3.86,2.77,2.77,0,0,1-3.84-.88A2.81,2.81,0,0,1,75.72,94.09Z"/></svg>