<svg id="Layer_1" data-name="Layer 1" xmlns="http://www.w3.org/2000/svg" viewBox="0 0 100 100"><defs><style>.cls-1{fill:none;stroke:#000;stroke-linecap:round;stroke-miterlimit:10;stroke-width:6.22px;opacity:0.7;isolation:isolate;}</style></defs><title>Server Listing Icons</title><circle cx="11.87" cy="96.28" r="3.01" transform="translate(-84.84 88.6) rotate(-78.43)"/><circle cx="44.52" cy="96.28" r="3.01" transform="translate(-58.73 120.58) rotate(-78.43)"/><circle cx="11.87" cy="3.72" r="3.01" transform="translate(5.84 14.6) rotate(-78.43)"/><circle cx="44.52" cy="3.72" r="3.01" transform="translate(31.95 46.59) rotate(-78.43)"/><circle cx="55.42" cy="48.52" r="3.01" transform="translate(-3.23 93.08) rotate(-78.43)"/><circle cx="88.13" cy="48.52" r="3.01" transform="translate(22.92 125.13) rotate(-78.43)"/><path class="cls-1" d="M12,3.73,55.66,47.44a1.36,1.36,0,0,1,0,1.89L11.88,96.14"/><path class="cls-1" d="M44.62,3.73,88.33,47.44a1.36,1.36,0,0,1,0,1.89L44.55,96.14"/></svg>