<svg id="Layer_1" data-name="Layer 1" xmlns="http://www.w3.org/2000/svg" viewBox="0 0 100 100"><defs><style>.cls-1{fill:#020202;opacity:0.7;isolation:isolate;}</style></defs><title>Server Listing Icons</title><path class="cls-1" d="M89.41,69.2h-6.9V41.82A32.55,32.55,0,0,0,52.58,9.42V2.79a2.58,2.58,0,0,0-5.15,0V9.42a32.54,32.54,0,0,0-29.93,32.4V69.2h-6.9A7.59,7.59,0,0,0,3,76.78v9H34.88a15.16,15.16,0,0,0,30.24,0H97v-9A7.59,7.59,0,0,0,89.41,69.2ZM50,94.62a10,10,0,0,1-9.95-8.86h19.9A10,10,0,0,1,50,94.62Z"/></svg>