<?xml version="1.0" encoding="utf-8"?>
<!-- Generator: Adobe Illustrator 21.0.0, SVG Export Plug-In . SVG Version: 6.00 Build 0)  -->
<svg version="1.1" xmlns="http://www.w3.org/2000/svg" xmlns:xlink="http://www.w3.org/1999/xlink" x="0px" y="0px"
	 viewBox="0 0 90 90" style="enable-background:new 0 0 90 90;" xml:space="preserve">
<style type="text/css">
	.st0{display:none;}
	
		.st1{opacity:0.7;fill:none;stroke:#07B8D6;stroke-width:4.6071;stroke-linecap:round;stroke-miterlimit:10;enable-background:new    ;}
	.st2{opacity:0.9;fill:#07B8D6;enable-background:new    ;}
	.st3{fill:#07B8D6;}
	.st4{display:inline;opacity:0.29;}
	.st5{fill:none;stroke:#FFFFFF;stroke-width:0.25;stroke-miterlimit:10;}
	.st6{fill:none;stroke:#FFFFFF;stroke-width:0.25;stroke-miterlimit:10;stroke-dasharray:3.01,3.01;}
	.st7{fill:none;stroke:#FFFFFF;stroke-width:0.25;stroke-miterlimit:10;stroke-dasharray:3,3;}
	.st8{display:inline;opacity:0.29;fill:#FFFFFF;}
	.st9{font-family:'MyriadPro-Regular';}
	.st10{font-size:6.0202px;}
</style>
<g id="Layer_1">
	<rect class="st0" width="90" height="90"/>
</g>
<g id="icon">
</g>
<g id="Layer_4">
	<g id="Stroke">
		<path class="st1" d="M60.7,20.3c3.7,8.7-0.4,18.7-9.1,22.4c-8.7,3.7-18.7-0.4-22.4-9.1c-1.8-4.2-1.8-9,0-13.3"/>
		<path class="st1" d="M8.6,80.5C8.4,60.4,24.5,43.9,44.6,43.7s36.6,15.9,36.8,36.1c0,0.2,0,0.5,0,0.7"/>
	</g>
	<g id="Fill">
		<circle class="st2" cx="8.6" cy="80.5" r="2.3"/>
		<circle class="st2" cx="29.2" cy="20.3" r="2.3"/>
		<circle class="st2" cx="60.7" cy="20.3" r="2.3"/>
		<circle class="st2" cx="81.4" cy="80.5" r="2.3"/>
		<path class="st3" d="M42.4,9.8c0-1.4,1.2-2.6,2.6-2.6l0,0l0,0c1.4,0,2.6,1.2,2.6,2.6l0,0l0,0c0,1.4-1.2,2.6-2.6,2.6l0,0l0,0
			C43.5,12.4,42.4,11.2,42.4,9.8L42.4,9.8z"/>
		<path class="st3" d="M52.2,14.3L52.2,14.3c-1.2-0.7-1.7-2.3-1-3.5c0,0,0,0,0,0l0,0c0.7-1.2,2.3-1.7,3.5-1c0,0,0,0,0,0l0,0
			c1.2,0.7,1.7,2.3,1,3.5c0,0,0,0,0,0l0,0c-0.5,0.8-1.3,1.3-2.2,1.3l0,0C53,14.6,52.6,14.5,52.2,14.3z"/>
		<path class="st3" d="M34.2,13.3c-0.7-1.2-0.3-2.8,1-3.5l0,0l0,0c1.2-0.7,2.8-0.3,3.5,1c0,0,0,0,0,0l0,0c0.7,1.2,0.3,2.8-0.9,3.5
			c0,0,0,0,0,0l0,0c-0.4,0.2-0.8,0.3-1.3,0.3l0,0C35.5,14.6,34.7,14.1,34.2,13.3z"/>
	</g>
</g>
<g id="_x2A_delete_when_export_x2A__guide" class="st0">
	<g class="st4">
		<g>
			<polyline class="st5" points="84.1,82.5 84.1,84 82.6,84 			"/>
			<line class="st6" x1="79.6" y1="84" x2="8.9" y2="84"/>
			<polyline class="st5" points="7.4,84 5.9,84 5.9,82.5 			"/>
			<line class="st7" x1="5.9" y1="79.5" x2="5.9" y2="9"/>
			<polyline class="st5" points="5.9,7.5 5.9,6 7.4,6 			"/>
			<line class="st6" x1="10.4" y1="6" x2="81.1" y2="6"/>
			<polyline class="st5" points="82.6,6 84.1,6 84.1,7.5 			"/>
			<line class="st7" x1="84.1" y1="10.5" x2="84.1" y2="81"/>
		</g>
	</g>
	<text transform="matrix(1 0 0 1 32.5 45)" class="st8 st9 st10">SAFE ZONE</text>
</g>
</svg>
