<svg id="Layer_1" data-name="Layer 1" xmlns="http://www.w3.org/2000/svg" viewBox="0 0 100 100"><defs><style>.cls-1{fill:none;stroke:#21b21e;stroke-linecap:round;stroke-miterlimit:10;stroke-width:5.95px;opacity:0.7;}.cls-1,.cls-2{isolation:isolate;}.cls-2,.cls-3{fill:#21b21e;}.cls-2{opacity:0.9;}</style></defs><title>Server Listing Icons</title><g id="Stroke"><path class="cls-1" d="M70.25,18.3a22.05,22.05,0,1,1-40.64,0"/><path class="cls-1" d="M3,96A47,47,0,0,1,97,95q0,.48,0,1"/></g><circle class="cls-2" cx="2.97" cy="95.98" r="2.97"/><circle class="cls-2" cx="29.61" cy="18.3" r="2.97"/><circle class="cls-2" cx="70.24" cy="18.3" r="2.97"/><circle class="cls-2" cx="97.03" cy="95.98" r="2.97"/><path class="cls-3" d="M46.59,4.67a3.35,3.35,0,0,1,3.35-3.35h0a3.35,3.35,0,0,1,3.35,3.35h0A3.35,3.35,0,0,1,49.94,8h0a3.35,3.35,0,0,1-3.35-3.35Z"/><path class="cls-3" d="M59.25,10.49h0A3.35,3.35,0,0,1,58,5.92h0a3.34,3.34,0,0,1,4.56-1.23h0a3.34,3.34,0,0,1,1.24,4.55h0a3.34,3.34,0,0,1-2.9,1.68h0A3.29,3.29,0,0,1,59.25,10.49Z"/><path class="cls-3" d="M36.06,9.26a3.35,3.35,0,0,1,1.23-4.57h0a3.35,3.35,0,0,1,4.57,1.23h0a3.34,3.34,0,0,1-1.23,4.56h0a3.32,3.32,0,0,1-1.67.45h0A3.34,3.34,0,0,1,36.06,9.26Z"/></svg>