<svg id="Layer_1" data-name="Layer 1" xmlns="http://www.w3.org/2000/svg" viewBox="0 0 100 100"><defs><style>.cls-1{fill:none;stroke:#000;stroke-linecap:round;stroke-miterlimit:10;stroke-width:5.69px;opacity:0.7;isolation:isolate;}</style></defs><title>Server Listing Icons</title><path class="cls-1" d="M71.66,43.38l9,13.14a1.22,1.22,0,0,0,1.73.29l13.38-9.87"/><path class="cls-1" d="M81.6,57.35a32.42,32.42,0,0,0,.86-7.51A39.33,39.33,0,1,0,43.13,89.17"/><circle cx="3.98" cy="46.04" r="2.72" transform="translate(-41.92 40.71) rotate(-78.43)"/><circle cx="25.26" cy="55" r="2.72" transform="translate(-33.69 68.71) rotate(-78.43)"/><circle cx="47.8" cy="54.85" r="2.72" transform="translate(-15.53 90.68) rotate(-78.43)"/><circle cx="43.1" cy="89.19" r="2.72" transform="translate(-52.92 113.52) rotate(-78.43)"/><circle cx="81.54" cy="57.39" r="2.72" transform="translate(8.96 125.76) rotate(-78.43)"/><circle cx="96.02" cy="46.87" r="2.72" transform="translate(30.85 131.53) rotate(-78.43)"/><circle cx="71.68" cy="43.21" r="2.72" transform="matrix(0.2, -0.98, 0.98, 0.2, 14.98, 104.77)"/><circle cx="47.8" cy="28.06" r="2.72" transform="translate(10.73 69.26) rotate(-78.43)"/><circle cx="47.8" cy="10.81" r="2.72" transform="translate(27.62 55.47) rotate(-78.43)"/><path class="cls-1" d="M47.79,28.08V54.51a.49.49,0,0,1-.49.49h-22"/></svg>