<svg id="Layer_1" data-name="Layer 1" xmlns="http://www.w3.org/2000/svg" viewBox="0 0 19 19"><defs><style>.cls-1{fill:#231f20;}</style></defs><title>servers</title><path class="cls-1" d="M15,2.65C11.65.08,7.62,2,4.58,4.09L2.92,2.43a.4.4,0,0,0-.67.28V9.59a.4.4,0,0,0,.39.39H8.87a.4.4,0,0,0,.28-.67L7.23,7.4l-.06-.08A9,9,0,0,1,8,6.8c3.21-2.13,6.88-2.63,9.39.87a.39.39,0,0,0,.72-.3A9.19,9.19,0,0,0,15,2.65Z"/><path class="cls-1" d="M5.34,16.31c3.35,2.57,7.38.7,10.42-1.44l1.66,1.66a.4.4,0,0,0,.67-.28V9.38A.4.4,0,0,0,17.7,9H11.47a.4.4,0,0,0-.28.67l1.91,1.91.06.08a9,9,0,0,1-.79.52C9.17,14.29,5.5,14.8,3,11.3a.39.39,0,0,0-.72.3A9.19,9.19,0,0,0,5.34,16.31Z"/></svg>