<svg id="Layer_1" data-name="Layer 1" xmlns="http://www.w3.org/2000/svg" viewBox="0 0 19.53 21.81"><g id="lines"><polyline points="14.12 15.88 14.12 5.8 12.34 5.8 12.74 5.8 5.43 5.8 5.43 15.88 14.12 15.88" style="fill:none;stroke:#000;stroke-linecap:round;stroke-linejoin:round;stroke-width:1.25px"/><line x1="7.16" y1="8.55" x2="12.26" y2="8.55" style="fill:none;stroke:#000;stroke-linecap:round;stroke-linejoin:round;stroke-width:1.25px"/><line x1="7.16" y1="10.77" x2="12.26" y2="10.77" style="fill:none;stroke:#000;stroke-linecap:round;stroke-linejoin:round;stroke-width:1.25px"/><line x1="7.16" y1="13.11" x2="12.26" y2="13.11" style="fill:none;stroke:#000;stroke-linecap:round;stroke-linejoin:round;stroke-width:1.25px"/><line x1="3.33" y1="21.19" x2="0.63" y2="18.39" style="fill:none;stroke:#000;stroke-linecap:round;stroke-linejoin:round;stroke-width:1.25px"/><line x1="16.93" y1="18.39" x2="0.63" y2="18.39" style="fill:none;stroke:#000;stroke-linecap:round;stroke-linejoin:round;stroke-width:1.25px"/><line x1="16.93" y1="18.39" x2="16.93" y2="15.88" style="fill:none;stroke:#000;stroke-linecap:round;stroke-linejoin:round;stroke-width:1.25px"/><line x1="0.63" y1="18.39" x2="3.33" y2="15.61" style="fill:none;stroke:#000;stroke-linecap:round;stroke-linejoin:round;stroke-width:1.25px"/><line x1="16.21" y1="0.63" x2="18.9" y2="3.41" style="fill:none;stroke:#000;stroke-linecap:round;stroke-linejoin:round;stroke-width:1.25px"/><line x1="2.6" y1="3.41" x2="18.9" y2="3.41" style="fill:none;stroke:#000;stroke-linecap:round;stroke-linejoin:round;stroke-width:1.25px"/><line x1="2.6" y1="3.43" x2="2.6" y2="5.93" style="fill:none;stroke:#000;stroke-linecap:round;stroke-linejoin:round;stroke-width:1.25px"/><line x1="18.9" y1="3.41" x2="16.21" y2="6.22" style="fill:none;stroke:#000;stroke-linecap:round;stroke-linejoin:round;stroke-width:1.25px"/></g><g id="fill"><circle cx="2.6" cy="9.44" r="0.62"/><circle cx="2.6" cy="7.68" r="0.62"/><circle cx="2.6" cy="11.19" r="0.62"/><circle cx="2.6" cy="13.02" r="0.62"/><circle cx="16.93" cy="10.44" r="0.62"/><circle cx="16.93" cy="8.68" r="0.62"/><circle cx="16.93" cy="12.19" r="0.62"/><circle cx="16.93" cy="14.02" r="0.62"/></g></svg>