<svg id="Layer_1" data-name="Layer 1" xmlns="http://www.w3.org/2000/svg" viewBox="0 0 18.66 18.52"><g id="lines"><path d="M15.35,7.74a3.51,3.51,0,0,1-6.46,2.75,3.55,3.55,0,0,1,0-2.75" transform="translate(-3.73 -3.78)" style="fill:none;stroke:#00bed8;stroke-linecap:round;stroke-miterlimit:10;stroke-width:1.7999999523162842px"/><path d="M4.63,20.46a8.58,8.58,0,0,1,1.78-4.65,7.42,7.42,0,0,1,3.32-2.5,8,8,0,0,1,6.73,1" transform="translate(-3.73 -3.78)" style="fill:none;stroke:#00bed8;stroke-linecap:round;stroke-miterlimit:10;stroke-width:1.7999999523162842px"/></g><g id="fill"><circle cx="6.24" cy="1.64" r="0.82" style="fill:#00bed8"/><circle cx="10.76" cy="1.64" r="0.82" style="fill:#00bed8"/><circle cx="8.54" cy="0.82" r="0.82" style="fill:#00bed8"/><path d="M15.85,17.83l1.47-.19a.47.47,0,0,0,.37-.27l.76-1.53a.49.49,0,0,1,.66-.21.53.53,0,0,1,.21.21l.76,1.47a.51.51,0,0,0,.36.26l1.53.24a.48.48,0,0,1,.26.83l-1.16,1.11a.49.49,0,0,0-.14.47l.34,1.49a.48.48,0,0,1-.38.58.45.45,0,0,1-.32,0l-1.43-.75a.53.53,0,0,0-.46,0l-1.38.74a.49.49,0,0,1-.71-.53l.29-1.44a.51.51,0,0,0-.13-.44l-1.18-1.18a.48.48,0,0,1,0-.69A.5.5,0,0,1,15.85,17.83Z" transform="translate(-3.73 -3.78)" style="fill:#00bed8"/></g></svg>