<svg id="lines" xmlns="http://www.w3.org/2000/svg" viewBox="0 0 19.39 21.64"><circle cx="1.87" cy="6.22" r="1.29" style="fill:none;stroke:#000;stroke-linecap:round;stroke-linejoin:round"/><path d="M3.44,14.24a8.84,8.84,0,0,1,.81-4.67" transform="translate(-2.9 -2.15)" style="fill:none;stroke:#000;stroke-linecap:round;stroke-linejoin:round"/><circle cx="1.84" cy="15.3" r="1.29" style="fill:none;stroke:#000;stroke-linecap:round;stroke-linejoin:round"/><path d="M9.2,21.48a8.83,8.83,0,0,1-3.68-3" transform="translate(-2.9 -2.15)" style="fill:none;stroke:#000;stroke-linecap:round;stroke-linejoin:round"/><circle cx="9.7" cy="19.85" r="1.29" style="fill:none;stroke:#000;stroke-linecap:round;stroke-linejoin:round"/><path d="M21.73,11.57A8.73,8.73,0,0,1,21,16.24" transform="translate(-2.9 -2.15)" style="fill:none;stroke:#000;stroke-linecap:round;stroke-linejoin:round"/><circle cx="17.54" cy="15.29" r="1.29" style="fill:none;stroke:#000;stroke-linecap:round;stroke-linejoin:round"/><path d="M7,5.86a8.89,8.89,0,0,1,4.41-1.74" transform="translate(-2.9 -2.15)" style="fill:none;stroke:#000;stroke-linecap:round;stroke-linejoin:round"/><circle cx="9.75" cy="1.79" r="1.29" style="fill:none;stroke:#000;stroke-miterlimit:10"/><path d="M15.83,4.53a9,9,0,0,1,3.78,2.85" transform="translate(-2.9 -2.15)" style="fill:none;stroke:#000;stroke-linecap:round;stroke-linejoin:round"/><circle cx="17.53" cy="6.24" r="1.29" style="fill:none;stroke:#000;stroke-linecap:round;stroke-linejoin:round"/><path d="M18.3,20.1a9,9,0,0,1-4.41,1.73" transform="translate(-2.9 -2.15)" style="fill:none;stroke:#000;stroke-linecap:round;stroke-linejoin:round"/><polygon points="5.31 8.27 9.81 5.74 14.37 8.27 14.37 13.28 9.84 16.06 5.31 13.47 5.31 8.27" style="fill:none;stroke:#000;stroke-linecap:round;stroke-linejoin:round"/><line x1="9.84" y1="10.9" x2="9.84" y2="16.06" style="fill:none;stroke:#000;stroke-linecap:round;stroke-linejoin:round"/><line x1="9.84" y1="10.9" x2="5.31" y2="8.27" style="fill:none;stroke:#000;stroke-linecap:round;stroke-linejoin:round"/><line x1="14.37" y1="8.27" x2="9.84" y2="10.9" style="fill:none;stroke:#000;stroke-linecap:round;stroke-linejoin:round"/></svg>