<svg id="lines" xmlns="http://www.w3.org/2000/svg" viewBox="0 0 11.49 18.35"><path d="M14.86,16.57v-.65a4.19,4.19,0,0,1,1.27-3,5,5,0,0,0-3.44-8.64,5.42,5.42,0,0,0-.57,0A5,5,0,0,0,9.18,12.9a4.22,4.22,0,0,1,1.3,3v.65a1.25,1.25,0,0,0,1.25,1.25h1.93A1.26,1.26,0,0,0,14.86,16.57Z" transform="translate(-6.9 -3.57)" style="fill:none;stroke:#000;stroke-linecap:round;stroke-linejoin:round;stroke-width:1.399999976158142px"/><line x1="4.25" y1="16.04" x2="7.25" y2="16.04" style="fill:none;stroke:#000;stroke-linecap:round;stroke-linejoin:round;stroke-width:1.2000000476837158px"/><line x1="4.25" y1="17.75" x2="7.25" y2="17.75" style="fill:none;stroke:#000;stroke-linecap:round;stroke-linejoin:round;stroke-width:1.2000000476837158px"/></svg>