<svg id="Layer_1" data-name="Layer 1" xmlns="http://www.w3.org/2000/svg" viewBox="0 0 23.97 19.59"><g id="lines"><path d="M12.7,8.56h3.83M13,14l3.55-5.39M13,14h3.44m0,0L9.36,23M12.7,8.56l-3,7.38m0,0h2.63m0,0L9.36,23" transform="translate(-0.71 -4.11)" style="fill:none;stroke:#000;stroke-linecap:round;stroke-linejoin:round;stroke-width:1.399999976158142px"/><path d="M5,18.49a3.56,3.56,0,0,1-.07-7.11A2.92,2.92,0,0,1,9.41,8.1a5.46,5.46,0,0,1,10.38,2.15,4.12,4.12,0,0,1,4,4.13,4,4,0,0,1-3.87,4.13h-.13" transform="translate(-0.71 -4.11)" style="fill:none;stroke:#000;stroke-linecap:round;stroke-linejoin:round;stroke-width:1.7699999809265137px"/></g><g id="fill"><path d="M15.39,18.51a.87.87,0,0,1,.87-.89h0a.89.89,0,0,1,.89.89h0a.89.89,0,0,1-.89.88h0A.87.87,0,0,1,15.39,18.51Z" transform="translate(-0.71 -4.11)"/><path d="M7.31,18.51a.87.87,0,0,1,.87-.89h0a.89.89,0,0,1,.89.89h0a.89.89,0,0,1-.89.88h0A.87.87,0,0,1,7.31,18.51Z" transform="translate(-0.71 -4.11)"/></g></svg>