<svg id="lines" xmlns="http://www.w3.org/2000/svg" viewBox="0 0 19.94 20.14"><polyline points="14.44 7.05 14.44 0.89 11.65 0.89 12.29 0.89 0.89 0.89 0.89 16.61 7.83 16.61" style="fill:none;stroke:#000;stroke-linecap:round;stroke-linejoin:round;stroke-width:1.7699999809265137px"/><line x1="3.69" y1="4.98" x2="11.67" y2="4.98" style="fill:none;stroke:#000;stroke-linecap:round;stroke-linejoin:round;stroke-width:1.7699999809265137px"/><line x1="3.69" y1="8.37" x2="11.67" y2="8.37" style="fill:none;stroke:#000;stroke-linecap:round;stroke-miterlimit:10;stroke-width:1.7699999809265137px"/><path d="M17.77,16.41a1.49,1.49,0,1,1-1.45,1.53v-.05a1.46,1.46,0,0,1,1.45-1.48m0-1.17a2.66,2.66,0,1,0,2.62,2.7v-.05A2.64,2.64,0,0,0,17.77,15.24Z" transform="translate(-3.38 -3.35)"/><path d="M18.23,13.47l.44,1.26.72.39,1.08-.62.64.62-.51,1.1.26.81,1.2.37v.94l-1.13.34-.37.8.52,1.15-.59.59-1-.52-1,.47-.3,1.15H17.4L17,21.06l-.75-.33-1.17.63-.63-.66L15,19.59l-.37-.83-1.12-.35V17.5l1.17-.39.32-.87-.58-1.09.67-.65,1,.55,1-.41.35-1.17h.88m0-1.17h-.88a1.17,1.17,0,0,0-1.12.83l-.18.59-.41-.24a1.08,1.08,0,0,0-.58-.16,1.15,1.15,0,0,0-.82.34l-.67.65a1.18,1.18,0,0,0-.21,1.39l.27.51-.53.19a1.16,1.16,0,0,0-.79,1.1v.91a1.16,1.16,0,0,0,.82,1.11l.5.16-.24.52a1.17,1.17,0,0,0,.21,1.32l.63.65a1.15,1.15,0,0,0,1.39.22l.5-.27.22.59a1.15,1.15,0,0,0,1.1.78h.79a1.17,1.17,0,0,0,1.13-.88L19.6,22l.45.23a1.09,1.09,0,0,0,.53.13,1.14,1.14,0,0,0,.83-.35l.59-.58a1.18,1.18,0,0,0,.24-1.32L22,19.61l.49-.15a1.17,1.17,0,0,0,.83-1.12V17.4a1.17,1.17,0,0,0-.82-1.12L22,16.14l.24-.52A1.18,1.18,0,0,0,22,14.29l-.64-.63a1.15,1.15,0,0,0-.82-.34,1.21,1.21,0,0,0-.59.16l-.34.2-.21-.59A1.16,1.16,0,0,0,18.32,12.3Z" transform="translate(-3.38 -3.35)"/></svg>