<?xml version="1.0" encoding="utf-8"?>
<!-- Generator: Adobe Illustrator 21.1.0, SVG Export Plug-In . SVG Version: 6.00 Build 0)  -->
<svg version="1.1" id="Layer_1" xmlns="http://www.w3.org/2000/svg" xmlns:xlink="http://www.w3.org/1999/xlink" x="0px" y="0px"
	 viewBox="0 0 300 300" style="enable-background:new 0 0 300 300;" xml:space="preserve">
<path d="M269.4,221.2h-7.9h-177c-10.1,0-18.4,8.2-18.4,18.4S74.3,258,84.4,258h177h7.9h19v-36.8H269.4z"/>
<circle cx="29.7" cy="240" r="18"/>
<path d="M269.4,131.6h-7.9h-177c-10.1,0-18.4,8.2-18.4,18.4s8.2,18.4,18.4,18.4h177h7.9h19v-36.8H269.4z"/>
<circle cx="29.7" cy="150.4" r="18"/>
<path d="M269.4,42h-7.9h-177C74.3,42,66,50.2,66,60.4s8.2,18.4,18.4,18.4h177h7.9h19V42H269.4z"/>
<circle cx="29.7" cy="60.7" r="18"/>
</svg>
