<?xml version="1.0" encoding="UTF-8" standalone="no"?>
<!DOCTYPE svg PUBLIC "-//W3C//DTD SVG 20010904//EN"
              "http://www.w3.org/TR/2001/REC-SVG-20010904/DTD/svg10.dtd">

<svg xmlns="http://www.w3.org/2000/svg"
     width="0.266667in" height="0.266667in"
     viewBox="0 0 24 24">
  <path id="Imported Path"
        fill="black" stroke="black" stroke-width="1"
        d="M 12.00,5.83
           C 12.00,5.83 15.17,9.00 15.17,9.00
             15.17,9.00 16.58,7.59 16.58,7.59
             16.58,7.59 12.00,3.00 12.00,3.00
             12.00,3.00 7.41,7.59 7.41,7.59
             7.41,7.59 8.83,9.00 8.83,9.00
             8.83,9.00 12.00,5.83 12.00,5.83 Z
           M 12.00,18.17
           C 12.00,18.17 8.83,15.00 8.83,15.00
             8.83,15.00 7.42,16.41 7.42,16.41
             7.42,16.41 12.00,21.00 12.00,21.00
             12.00,21.00 16.59,16.41 16.59,16.41
             16.59,16.41 15.17,15.00 15.17,15.00
             15.17,15.00 12.00,18.17 12.00,18.17 Z" />
</svg>
