<?xml version="1.0" encoding="utf-8"?>
<!-- Generator: Adobe Illustrator 21.0.0, SVG Export Plug-In . SVG Version: 6.00 Build 0)  -->
<svg version="1.1" xmlns="http://www.w3.org/2000/svg" xmlns:xlink="http://www.w3.org/1999/xlink" x="0px" y="0px"
	 viewBox="0 0 90 90" style="enable-background:new 0 0 90 90;" xml:space="preserve">
<style type="text/css">
	.st0{display:none;}
	.st1{display:inline;}
	.st2{opacity:0.7;fill:none;stroke:#FFFFFF;stroke-width:4.561;stroke-linecap:round;stroke-linejoin:round;stroke-miterlimit:10;}
	.st3{display:inline;opacity:0.29;}
	.st4{fill:none;stroke:#FFFFFF;stroke-width:0.25;stroke-miterlimit:10;}
	.st5{fill:none;stroke:#FFFFFF;stroke-width:0.25;stroke-miterlimit:10;stroke-dasharray:3.01,3.01;}
	.st6{fill:none;stroke:#FFFFFF;stroke-width:0.25;stroke-miterlimit:10;stroke-dasharray:3,3;}
	.st7{display:inline;opacity:0.29;fill:#FFFFFF;}
	.st8{font-family:'MyriadPro-Regular';}
	.st9{font-size:6.0202px;}
</style>
<g id="Layer_1" class="st0">
	<rect class="st1" width="90" height="90"/>
</g>
<g id="icon">
</g>
<g id="Layer_4">
	<path class="st2" d="M12.3,77.2v4.2h65.4v-4.7c0-5.3-3-10.1-7.8-12.3c-5.2-2.4-11.6-5.1-14.3-5.3V51c0,0,17.5-41.6-8.7-42.4
		c-27.5-0.9-12,42-12,42L34.5,59c0,0-7.8,2.8-14.4,5.9C15.3,67.1,12.3,71.9,12.3,77.2z"/>
</g>
<g id="_x2A_delete_when_export_x2A__guide" class="st0">
	<g class="st3">
		<g>
			<polyline class="st4" points="84.1,82.5 84.1,84 82.6,84 			"/>
			<line class="st5" x1="79.6" y1="84" x2="8.9" y2="84"/>
			<polyline class="st4" points="7.4,84 5.9,84 5.9,82.5 			"/>
			<line class="st6" x1="5.9" y1="79.5" x2="5.9" y2="9"/>
			<polyline class="st4" points="5.9,7.5 5.9,6 7.4,6 			"/>
			<line class="st5" x1="10.4" y1="6" x2="81.1" y2="6"/>
			<polyline class="st4" points="82.6,6 84.1,6 84.1,7.5 			"/>
			<line class="st6" x1="84.1" y1="10.5" x2="84.1" y2="81"/>
		</g>
	</g>
	<text transform="matrix(1 0 0 1 32.5 45)" class="st7 st8 st9">SAFE ZONE</text>
</g>
</svg>
