<svg id="Layer_1" data-name="Layer 1" xmlns="http://www.w3.org/2000/svg" viewBox="0 0 100 100"><defs><style>.cls-1{fill:none;stroke:#000;stroke-linecap:round;stroke-miterlimit:10;stroke-width:6.37px;opacity:0.7;isolation:isolate;}</style></defs><title>Server Listing Icons</title><circle cx="50" cy="74.31" r="3.04" transform="translate(-32.83 108.39) rotate(-78.43)"/><circle cx="50" cy="59.95" r="3.04" transform="translate(-18.76 96.91) rotate(-78.43)"/><circle cx="50" cy="28.17" r="3.04" transform="translate(12.37 71.5) rotate(-78.43)"/><circle cx="50" cy="6.04" r="3.04" transform="translate(34.05 53.81) rotate(-78.43)"/><circle cx="96" cy="88.04" r="3.04" transform="translate(-9.51 164.43) rotate(-78.43)"/><circle cx="4" cy="88.04" r="3.04" transform="translate(-83.05 74.3) rotate(-78.43)"/><path class="cls-1" d="M55.8,9.35,95.54,82.22a6.18,6.18,0,0,1-.1,6.52A6.62,6.62,0,0,1,89.75,92H10.25a6.62,6.62,0,0,1-5.69-3.26,6.18,6.18,0,0,1-.1-6.52L44.2,9.35a6.62,6.62,0,0,1,2.43-2.54,6.54,6.54,0,0,1,6.73,0A6.62,6.62,0,0,1,55.8,9.35Z"/><line class="cls-1" x1="50" y1="28.3" x2="50" y2="60.08"/></svg>